<mxfile host="65bd71144e">
    <diagram id="c87qXy51VqpFD1b8CfQG" name="Page-1">
        <mxGraphModel dx="9344" dy="3128" grid="1" gridSize="10" guides="1" tooltips="1" connect="1" arrows="1" fold="1" page="1" pageScale="2" pageWidth="850" pageHeight="1100" math="0" shadow="0">
            <root>
                <mxCell id="0"/>
                <mxCell id="1" parent="0"/>
                <mxCell id="81" value="n2" style="ellipse;shape=doubleEllipse;whiteSpace=wrap;html=1;aspect=fixed;" parent="1" vertex="1">
                    <mxGeometry x="-4025.75" y="1998.5" width="77.5" height="77.5" as="geometry"/>
                </mxCell>
                <mxCell id="82" value="n1" style="ellipse;shape=doubleEllipse;whiteSpace=wrap;html=1;aspect=fixed;" parent="1" vertex="1">
                    <mxGeometry x="-4025.75" y="2202" width="77.5" height="77.5" as="geometry"/>
                </mxCell>
                <mxCell id="170" value="" style="edgeStyle=none;html=1;fontSize=20;" parent="1" target="82" edge="1">
                    <mxGeometry relative="1" as="geometry">
                        <mxPoint x="-3980.0677495743184" y="2280" as="sourcePoint"/>
                    </mxGeometry>
                </mxCell>
                <mxCell id="472" value="2" style="edgeStyle=none;html=1;entryX=0;entryY=0.5;entryDx=0;entryDy=0;fontSize=19;" parent="1" source="86" target="438" edge="1">
                    <mxGeometry relative="1" as="geometry"/>
                </mxCell>
                <mxCell id="576" style="edgeStyle=none;html=1;exitX=0.5;exitY=0;exitDx=0;exitDy=0;entryX=0;entryY=0.5;entryDx=0;entryDy=0;fontSize=25;startArrow=none;startFill=0;endArrow=classic;endFill=1;" edge="1" parent="1" source="86" target="573">
                    <mxGeometry relative="1" as="geometry">
                        <Array as="points">
                            <mxPoint x="270" y="320"/>
                        </Array>
                    </mxGeometry>
                </mxCell>
                <mxCell id="86" value="n1" style="ellipse;shape=doubleEllipse;whiteSpace=wrap;html=1;aspect=fixed;" parent="1" vertex="1">
                    <mxGeometry x="233" y="530" width="77.5" height="77.5" as="geometry"/>
                </mxCell>
                <mxCell id="87" value="n5" style="ellipse;shape=doubleEllipse;whiteSpace=wrap;html=1;aspect=fixed;" parent="1" vertex="1">
                    <mxGeometry x="233" y="1921.5" width="77.5" height="77.5" as="geometry"/>
                </mxCell>
                <mxCell id="88" value="n6" style="ellipse;shape=doubleEllipse;whiteSpace=wrap;html=1;aspect=fixed;" parent="1" vertex="1">
                    <mxGeometry x="233" y="1684" width="77.5" height="77.5" as="geometry"/>
                </mxCell>
                <mxCell id="125" style="edgeStyle=none;html=1;entryX=0;entryY=1;entryDx=0;entryDy=0;" parent="1" source="105" target="106" edge="1">
                    <mxGeometry relative="1" as="geometry"/>
                </mxCell>
                <mxCell id="162" value="2" style="edgeLabel;html=1;align=center;verticalAlign=middle;resizable=0;points=[];fontSize=20;" parent="125" vertex="1" connectable="0">
                    <mxGeometry x="-0.3139" y="1" relative="1" as="geometry">
                        <mxPoint x="-1" as="offset"/>
                    </mxGeometry>
                </mxCell>
                <mxCell id="129" style="edgeStyle=none;html=1;entryX=1;entryY=0;entryDx=0;entryDy=0;exitX=1;exitY=0.75;exitDx=0;exitDy=0;" parent="1" source="105" target="126" edge="1">
                    <mxGeometry relative="1" as="geometry">
                        <Array as="points">
                            <mxPoint x="-2677" y="1695"/>
                            <mxPoint x="-2677" y="1885"/>
                        </Array>
                    </mxGeometry>
                </mxCell>
                <mxCell id="105" value="" style="shape=ext;double=1;rounded=0;whiteSpace=wrap;html=1;" parent="1" vertex="1">
                    <mxGeometry x="-2727" y="1590" width="20" height="140" as="geometry"/>
                </mxCell>
                <mxCell id="131" style="edgeStyle=none;html=1;entryX=-0.15;entryY=0.382;entryDx=0;entryDy=0;entryPerimeter=0;" parent="1" source="106" target="132" edge="1">
                    <mxGeometry relative="1" as="geometry">
                        <mxPoint x="-2487" y="2050" as="targetPoint"/>
                        <Array as="points">
                            <mxPoint x="-2524" y="2081"/>
                        </Array>
                    </mxGeometry>
                </mxCell>
                <mxCell id="380" style="edgeStyle=none;html=1;entryX=1;entryY=0.5;entryDx=0;entryDy=0;fontSize=16;exitX=0.5;exitY=0;exitDx=0;exitDy=0;" parent="1" source="106" target="379" edge="1">
                    <mxGeometry relative="1" as="geometry">
                        <mxPoint x="-2507" y="1460" as="sourcePoint"/>
                        <Array as="points"/>
                    </mxGeometry>
                </mxCell>
                <mxCell id="559" style="edgeStyle=none;html=1;exitX=1;exitY=0;exitDx=0;exitDy=0;fontSize=19;startArrow=none;startFill=0;endArrow=classic;endFill=1;entryX=0;entryY=0.75;entryDx=0;entryDy=0;" parent="1" source="106" target="558" edge="1">
                    <mxGeometry relative="1" as="geometry">
                        <mxPoint x="-2237" y="880" as="targetPoint"/>
                        <Array as="points">
                            <mxPoint x="-2327" y="870"/>
                        </Array>
                    </mxGeometry>
                </mxCell>
                <mxCell id="106" value="" style="ellipse;shape=doubleEllipse;whiteSpace=wrap;html=1;aspect=fixed;" parent="1" vertex="1">
                    <mxGeometry x="-2597" y="1467.88" width="146.25" height="146.25" as="geometry"/>
                </mxCell>
                <mxCell id="329" style="edgeStyle=none;html=1;entryX=0;entryY=0.5;entryDx=0;entryDy=0;fontSize=16;" parent="1" source="107" target="105" edge="1">
                    <mxGeometry relative="1" as="geometry"/>
                </mxCell>
                <mxCell id="107" value="" style="ellipse;shape=doubleEllipse;whiteSpace=wrap;html=1;aspect=fixed;" parent="1" vertex="1">
                    <mxGeometry x="-2847" y="1626.25" width="67.5" height="67.5" as="geometry"/>
                </mxCell>
                <mxCell id="327" style="edgeStyle=none;html=1;entryX=0;entryY=0.5;entryDx=0;entryDy=0;fontSize=16;" parent="1" source="108" target="109" edge="1">
                    <mxGeometry relative="1" as="geometry"/>
                </mxCell>
                <mxCell id="108" value="" style="ellipse;shape=doubleEllipse;whiteSpace=wrap;html=1;aspect=fixed;" parent="1" vertex="1">
                    <mxGeometry x="-2847" y="1390" width="67.5" height="67.5" as="geometry"/>
                </mxCell>
                <mxCell id="122" style="edgeStyle=none;html=1;entryX=0;entryY=0;entryDx=0;entryDy=0;" parent="1" source="109" target="106" edge="1">
                    <mxGeometry relative="1" as="geometry"/>
                </mxCell>
                <mxCell id="572" style="edgeStyle=none;html=1;exitX=1;exitY=0.75;exitDx=0;exitDy=0;entryX=1;entryY=1;entryDx=0;entryDy=0;fontSize=25;startArrow=none;startFill=0;endArrow=classic;endFill=1;" edge="1" parent="1" source="109" target="126">
                    <mxGeometry relative="1" as="geometry">
                        <Array as="points">
                            <mxPoint x="-2652" y="1477"/>
                            <mxPoint x="-2638" y="1932"/>
                        </Array>
                    </mxGeometry>
                </mxCell>
                <mxCell id="109" value="" style="shape=ext;double=1;rounded=0;whiteSpace=wrap;html=1;" parent="1" vertex="1">
                    <mxGeometry x="-2727" y="1353.75" width="20" height="140" as="geometry"/>
                </mxCell>
                <mxCell id="326" style="edgeStyle=none;html=1;exitX=1;exitY=0.5;exitDx=0;exitDy=0;entryX=0;entryY=0.5;entryDx=0;entryDy=0;fontSize=16;" parent="1" source="110" target="108" edge="1">
                    <mxGeometry relative="1" as="geometry"/>
                </mxCell>
                <mxCell id="110" value="" style="shape=ext;double=1;rounded=0;whiteSpace=wrap;html=1;" parent="1" vertex="1">
                    <mxGeometry x="-2927" y="1353.75" width="20" height="140" as="geometry"/>
                </mxCell>
                <mxCell id="328" style="edgeStyle=none;html=1;exitX=1;exitY=0.5;exitDx=0;exitDy=0;entryX=0;entryY=0.5;entryDx=0;entryDy=0;fontSize=16;" parent="1" source="111" target="107" edge="1">
                    <mxGeometry relative="1" as="geometry"/>
                </mxCell>
                <mxCell id="111" value="" style="shape=ext;double=1;rounded=0;whiteSpace=wrap;html=1;" parent="1" vertex="1">
                    <mxGeometry x="-2927" y="1590" width="20" height="140" as="geometry"/>
                </mxCell>
                <mxCell id="127" style="edgeStyle=none;html=1;entryX=-0.093;entryY=0.724;entryDx=0;entryDy=0;exitX=0;exitY=0;exitDx=0;exitDy=0;entryPerimeter=0;" parent="1" source="126" target="111" edge="1">
                    <mxGeometry relative="1" as="geometry">
                        <Array as="points">
                            <mxPoint x="-2947" y="1885"/>
                            <mxPoint x="-2947" y="1690"/>
                        </Array>
                    </mxGeometry>
                </mxCell>
                <mxCell id="227" style="edgeStyle=none;html=1;entryX=0;entryY=0.25;entryDx=0;entryDy=0;fontSize=12;" parent="1" source="126" target="226" edge="1">
                    <mxGeometry relative="1" as="geometry">
                        <Array as="points">
                            <mxPoint x="-3477" y="1910"/>
                            <mxPoint x="-3477" y="2475"/>
                        </Array>
                    </mxGeometry>
                </mxCell>
                <mxCell id="365" style="edgeStyle=none;html=1;fontSize=16;entryX=1;entryY=0.5;entryDx=0;entryDy=0;" parent="1" target="366" edge="1">
                    <mxGeometry relative="1" as="geometry">
                        <mxPoint x="-3857" y="2740" as="targetPoint"/>
                        <Array as="points">
                            <mxPoint x="-3517" y="1924"/>
                            <mxPoint x="-3517" y="2750"/>
                        </Array>
                        <mxPoint x="-2827" y="1930" as="sourcePoint"/>
                    </mxGeometry>
                </mxCell>
                <mxCell id="557" style="edgeStyle=none;html=1;entryX=0;entryY=0.75;entryDx=0;entryDy=0;fontSize=19;startArrow=none;startFill=0;endArrow=classic;endFill=1;" parent="1" source="126" target="552" edge="1">
                    <mxGeometry relative="1" as="geometry">
                        <Array as="points">
                            <mxPoint x="-2887" y="900"/>
                            <mxPoint x="-3567" y="540"/>
                        </Array>
                    </mxGeometry>
                </mxCell>
                <mxCell id="567" style="edgeStyle=none;html=1;exitX=1;exitY=0;exitDx=0;exitDy=0;entryX=0;entryY=0.5;entryDx=0;entryDy=0;" parent="1" source="126" target="558" edge="1">
                    <mxGeometry relative="1" as="geometry">
                        <Array as="points">
                            <mxPoint x="-2787" y="630"/>
                        </Array>
                    </mxGeometry>
                </mxCell>
                <mxCell id="126" value="1" style="ellipse;shape=doubleEllipse;whiteSpace=wrap;html=1;aspect=fixed;" parent="1" vertex="1">
                    <mxGeometry x="-2847" y="1874.75" width="67.5" height="67.5" as="geometry"/>
                </mxCell>
                <mxCell id="137" style="edgeStyle=none;html=1;exitX=0.5;exitY=0;exitDx=0;exitDy=0;entryX=0;entryY=0.75;entryDx=0;entryDy=0;" parent="1" source="130" target="132" edge="1">
                    <mxGeometry relative="1" as="geometry">
                        <Array as="points">
                            <mxPoint x="-2563" y="2133"/>
                        </Array>
                    </mxGeometry>
                </mxCell>
                <mxCell id="237" style="edgeStyle=none;html=1;exitX=0.5;exitY=1;exitDx=0;exitDy=0;entryX=0;entryY=0.5;entryDx=0;entryDy=0;fontSize=25;" parent="1" source="130" target="172" edge="1">
                    <mxGeometry relative="1" as="geometry">
                        <Array as="points">
                            <mxPoint x="-2563" y="2300"/>
                            <mxPoint x="-3139" y="2300"/>
                        </Array>
                    </mxGeometry>
                </mxCell>
                <mxCell id="244" style="edgeStyle=none;html=1;exitX=1;exitY=1;exitDx=0;exitDy=0;entryX=0;entryY=0.25;entryDx=0;entryDy=0;fontSize=25;" parent="1" source="130" target="240" edge="1">
                    <mxGeometry relative="1" as="geometry">
                        <Array as="points">
                            <mxPoint x="-2442" y="2250"/>
                        </Array>
                    </mxGeometry>
                </mxCell>
                <mxCell id="503" style="edgeStyle=none;html=1;exitX=1;exitY=0;exitDx=0;exitDy=0;entryX=0;entryY=0.25;entryDx=0;entryDy=0;fontSize=19;" parent="1" source="130" target="502" edge="1">
                    <mxGeometry relative="1" as="geometry">
                        <Array as="points">
                            <mxPoint x="-2387" y="2202"/>
                            <mxPoint x="-2387" y="2221"/>
                        </Array>
                    </mxGeometry>
                </mxCell>
                <mxCell id="130" value="90" style="ellipse;shape=doubleEllipse;whiteSpace=wrap;html=1;aspect=fixed;" parent="1" vertex="1">
                    <mxGeometry x="-2597" y="2192.5" width="67.5" height="67.5" as="geometry"/>
                </mxCell>
                <mxCell id="135" style="edgeStyle=none;html=1;exitX=1;exitY=0.5;exitDx=0;exitDy=0;entryX=0;entryY=0.549;entryDx=0;entryDy=0;entryPerimeter=0;" parent="1" source="132" target="133" edge="1">
                    <mxGeometry relative="1" as="geometry"/>
                </mxCell>
                <mxCell id="142" style="edgeStyle=none;html=1;exitX=1;exitY=0.75;exitDx=0;exitDy=0;entryX=0.706;entryY=0.074;entryDx=0;entryDy=0;entryPerimeter=0;" parent="1" source="132" target="138" edge="1">
                    <mxGeometry relative="1" as="geometry">
                        <mxPoint x="-2657" y="2270" as="targetPoint"/>
                        <Array as="points">
                            <mxPoint x="-2157" y="2133"/>
                            <mxPoint x="-2157" y="2340"/>
                            <mxPoint x="-2639" y="2340"/>
                        </Array>
                    </mxGeometry>
                </mxCell>
                <mxCell id="132" value="" style="shape=ext;double=1;rounded=0;whiteSpace=wrap;html=1;rotation=0;" parent="1" vertex="1">
                    <mxGeometry x="-2237" y="2027.5" width="20" height="140" as="geometry"/>
                </mxCell>
                <mxCell id="345" style="edgeStyle=none;html=1;exitX=1;exitY=0.5;exitDx=0;exitDy=0;entryX=1;entryY=0.75;entryDx=0;entryDy=0;fontSize=16;" parent="1" source="133" target="337" edge="1">
                    <mxGeometry relative="1" as="geometry">
                        <Array as="points">
                            <mxPoint x="-1897" y="2094"/>
                            <mxPoint x="-1897" y="2030"/>
                            <mxPoint x="-1748" y="2030"/>
                        </Array>
                    </mxGeometry>
                </mxCell>
                <mxCell id="133" value="" style="ellipse;shape=doubleEllipse;whiteSpace=wrap;html=1;aspect=fixed;" parent="1" vertex="1">
                    <mxGeometry x="-2047" y="2060" width="67.5" height="67.5" as="geometry"/>
                </mxCell>
                <mxCell id="141" style="edgeStyle=none;html=1;entryX=-0.15;entryY=0.568;entryDx=0;entryDy=0;entryPerimeter=0;" parent="1" source="138" target="132" edge="1">
                    <mxGeometry relative="1" as="geometry">
                        <Array as="points">
                            <mxPoint x="-2653" y="2107"/>
                        </Array>
                    </mxGeometry>
                </mxCell>
                <mxCell id="236" style="edgeStyle=none;html=1;exitX=0;exitY=1;exitDx=0;exitDy=0;fontSize=25;entryX=0;entryY=0.25;entryDx=0;entryDy=0;" parent="1" source="138" target="172" edge="1">
                    <mxGeometry relative="1" as="geometry">
                        <mxPoint x="-3077" y="2580" as="targetPoint"/>
                        <Array as="points">
                            <mxPoint x="-3104" y="2440"/>
                        </Array>
                    </mxGeometry>
                </mxCell>
                <mxCell id="243" style="edgeStyle=none;html=1;exitX=1;exitY=1;exitDx=0;exitDy=0;entryX=0;entryY=0.75;entryDx=0;entryDy=0;fontSize=25;" parent="1" source="138" target="240" edge="1">
                    <mxGeometry relative="1" as="geometry">
                        <Array as="points">
                            <mxPoint x="-2512" y="2438"/>
                        </Array>
                    </mxGeometry>
                </mxCell>
                <mxCell id="249" style="edgeStyle=none;html=1;exitX=1;exitY=0.5;exitDx=0;exitDy=0;fontSize=25;entryX=0;entryY=0.75;entryDx=0;entryDy=0;" parent="1" source="138" target="241" edge="1">
                    <mxGeometry relative="1" as="geometry">
                        <mxPoint x="-2290.4" y="2606.8" as="targetPoint"/>
                        <Array as="points">
                            <mxPoint x="-2322" y="2414"/>
                        </Array>
                    </mxGeometry>
                </mxCell>
                <mxCell id="252" style="edgeStyle=none;html=1;exitX=1;exitY=0;exitDx=0;exitDy=0;entryX=0;entryY=0.75;entryDx=0;entryDy=0;fontSize=25;" parent="1" source="138" target="242" edge="1">
                    <mxGeometry relative="1" as="geometry">
                        <Array as="points">
                            <mxPoint x="-2127" y="2390"/>
                        </Array>
                    </mxGeometry>
                </mxCell>
                <mxCell id="138" value="" style="ellipse;shape=doubleEllipse;whiteSpace=wrap;html=1;aspect=fixed;" parent="1" vertex="1">
                    <mxGeometry x="-2687" y="2380" width="67.5" height="67.5" as="geometry"/>
                </mxCell>
                <mxCell id="145" value="&lt;font style=&quot;font-size: 25px&quot;&gt;p=5&lt;/font&gt;" style="text;html=1;align=center;verticalAlign=middle;resizable=0;points=[];autosize=1;strokeColor=none;fillColor=none;" parent="1" vertex="1">
                    <mxGeometry x="-2255.5" y="2181" width="60" height="20" as="geometry"/>
                </mxCell>
                <mxCell id="155" value="exp(10s)" style="text;html=1;align=center;verticalAlign=middle;resizable=0;points=[];autosize=1;strokeColor=none;fillColor=none;" parent="1" vertex="1">
                    <mxGeometry x="-2747" y="1734" width="60" height="20" as="geometry"/>
                </mxCell>
                <mxCell id="156" value="exp(10s)" style="text;html=1;align=center;verticalAlign=middle;resizable=0;points=[];autosize=1;strokeColor=none;fillColor=none;" parent="1" vertex="1">
                    <mxGeometry x="-2747" y="1500" width="60" height="20" as="geometry"/>
                </mxCell>
                <mxCell id="157" value="Auto" style="text;html=1;align=center;verticalAlign=middle;resizable=0;points=[];autosize=1;strokeColor=none;fillColor=none;fontSize=20;" parent="1" vertex="1">
                    <mxGeometry x="-2507" y="1967.5" width="60" height="30" as="geometry"/>
                </mxCell>
                <mxCell id="159" value="p=12" style="text;html=1;align=center;verticalAlign=middle;resizable=0;points=[];autosize=1;strokeColor=none;fillColor=none;fontSize=20;" parent="1" vertex="1">
                    <mxGeometry x="-2945" y="1730" width="55" height="28" as="geometry"/>
                </mxCell>
                <mxCell id="160" value="p=11" style="text;html=1;align=center;verticalAlign=middle;resizable=0;points=[];autosize=1;strokeColor=none;fillColor=none;fontSize=20;" parent="1" vertex="1">
                    <mxGeometry x="-2944" y="1500" width="54" height="28" as="geometry"/>
                </mxCell>
                <mxCell id="171" style="edgeStyle=none;html=1;exitX=1;exitY=0.5;exitDx=0;exitDy=0;" parent="1" source="172" edge="1">
                    <mxGeometry relative="1" as="geometry">
                        <mxPoint x="-3139" y="2855" as="targetPoint"/>
                    </mxGeometry>
                </mxCell>
                <mxCell id="239" style="edgeStyle=none;html=1;exitX=1;exitY=0.25;exitDx=0;exitDy=0;entryX=0.5;entryY=1;entryDx=0;entryDy=0;fontSize=25;" parent="1" source="172" target="138" edge="1">
                    <mxGeometry relative="1" as="geometry">
                        <Array as="points">
                            <mxPoint x="-3104" y="2730"/>
                            <mxPoint x="-2653" y="2730"/>
                        </Array>
                    </mxGeometry>
                </mxCell>
                <mxCell id="172" value="" style="shape=ext;double=1;rounded=0;whiteSpace=wrap;html=1;rotation=90;" parent="1" vertex="1">
                    <mxGeometry x="-3149.25" y="2605" width="20" height="140" as="geometry"/>
                </mxCell>
                <mxCell id="351" style="edgeStyle=none;html=1;exitX=0.5;exitY=1;exitDx=0;exitDy=0;fontSize=16;entryX=0;entryY=0.75;entryDx=0;entryDy=0;" parent="1" source="173" target="350" edge="1">
                    <mxGeometry relative="1" as="geometry">
                        <Array as="points">
                            <mxPoint x="-3139" y="3033"/>
                        </Array>
                    </mxGeometry>
                </mxCell>
                <mxCell id="173" value="" style="ellipse;shape=doubleEllipse;whiteSpace=wrap;html=1;aspect=fixed;" parent="1" vertex="1">
                    <mxGeometry x="-3173" y="2855" width="67.5" height="67.5" as="geometry"/>
                </mxCell>
                <mxCell id="174" value="&lt;font style=&quot;font-size: 30px&quot;&gt;p=4&lt;/font&gt;" style="text;html=1;align=center;verticalAlign=middle;resizable=0;points=[];autosize=1;strokeColor=none;fillColor=none;" parent="1" vertex="1">
                    <mxGeometry x="-3072" y="2660" width="70" height="30" as="geometry"/>
                </mxCell>
                <mxCell id="238" style="edgeStyle=none;html=1;entryX=0;entryY=0.75;entryDx=0;entryDy=0;fontSize=25;exitX=0.682;exitY=0.978;exitDx=0;exitDy=0;exitPerimeter=0;" parent="1" source="285" target="172" edge="1">
                    <mxGeometry relative="1" as="geometry">
                        <mxPoint x="-3163" y="2007.5" as="sourcePoint"/>
                    </mxGeometry>
                </mxCell>
                <mxCell id="248" style="edgeStyle=none;html=1;entryX=0;entryY=0.25;entryDx=0;entryDy=0;fontSize=25;" parent="1" source="285" target="241" edge="1">
                    <mxGeometry relative="1" as="geometry">
                        <mxPoint x="-3139.135146134924" y="1997.614853865076" as="sourcePoint"/>
                        <Array as="points">
                            <mxPoint x="-3147" y="1640"/>
                            <mxPoint x="-3157" y="2320"/>
                            <mxPoint x="-2252" y="2320"/>
                        </Array>
                    </mxGeometry>
                </mxCell>
                <mxCell id="210" style="edgeStyle=none;html=1;entryX=0;entryY=0.25;entryDx=0;entryDy=0;exitX=0.002;exitY=0.366;exitDx=0;exitDy=0;exitPerimeter=0;" parent="1" source="126" target="110" edge="1">
                    <mxGeometry relative="1" as="geometry">
                        <Array as="points">
                            <mxPoint x="-2957" y="1900"/>
                            <mxPoint x="-2957" y="1389"/>
                        </Array>
                        <mxPoint x="-2991.728848804245" y="2156.4904067020398" as="sourcePoint"/>
                        <mxPoint x="-2917" y="1777.5" as="targetPoint"/>
                    </mxGeometry>
                </mxCell>
                <mxCell id="303" value="n1" style="edgeStyle=none;html=1;exitX=1;exitY=0.25;exitDx=0;exitDy=0;entryX=0.422;entryY=1.003;entryDx=0;entryDy=0;entryPerimeter=0;" parent="1" source="211" target="285" edge="1">
                    <mxGeometry relative="1" as="geometry"/>
                </mxCell>
                <mxCell id="305" style="edgeStyle=none;html=1;exitX=1;exitY=0.75;exitDx=0;exitDy=0;entryX=0.038;entryY=0.279;entryDx=0;entryDy=0;fontSize=16;entryPerimeter=0;" parent="1" source="211" target="232" edge="1">
                    <mxGeometry relative="1" as="geometry">
                        <Array as="points">
                            <mxPoint x="-3763" y="2280"/>
                        </Array>
                    </mxGeometry>
                </mxCell>
                <mxCell id="211" value="" style="shape=ext;double=1;rounded=0;whiteSpace=wrap;html=1;" parent="1" vertex="1">
                    <mxGeometry x="-3849.5" y="2161.75" width="20" height="158" as="geometry"/>
                </mxCell>
                <mxCell id="212" value="p=10" style="text;html=1;align=center;verticalAlign=middle;resizable=0;points=[];autosize=1;strokeColor=none;fillColor=none;" parent="1" vertex="1">
                    <mxGeometry x="-3858" y="2325.5" width="37" height="18" as="geometry"/>
                </mxCell>
                <mxCell id="228" style="edgeStyle=none;html=1;entryX=0;entryY=0.5;entryDx=0;entryDy=0;fontSize=12;" parent="1" source="226" target="138" edge="1">
                    <mxGeometry relative="1" as="geometry">
                        <Array as="points">
                            <mxPoint x="-3337" y="2510"/>
                            <mxPoint x="-3337" y="2414"/>
                        </Array>
                    </mxGeometry>
                </mxCell>
                <mxCell id="226" value="" style="shape=ext;double=1;rounded=0;whiteSpace=wrap;html=1;" parent="1" vertex="1">
                    <mxGeometry x="-3437" y="2440" width="20" height="140" as="geometry"/>
                </mxCell>
                <mxCell id="276" style="edgeStyle=none;html=1;exitX=0.019;exitY=0.418;exitDx=0;exitDy=0;entryX=0;entryY=0.75;entryDx=0;entryDy=0;exitPerimeter=0;" parent="1" source="229" target="275" edge="1">
                    <mxGeometry relative="1" as="geometry"/>
                </mxCell>
                <mxCell id="278" style="edgeStyle=none;html=1;entryX=0;entryY=0.75;entryDx=0;entryDy=0;exitX=0.073;exitY=0.246;exitDx=0;exitDy=0;exitPerimeter=0;" parent="1" source="229" target="274" edge="1">
                    <mxGeometry relative="1" as="geometry"/>
                </mxCell>
                <mxCell id="279" style="edgeStyle=none;html=1;exitX=0.225;exitY=0.092;exitDx=0;exitDy=0;entryX=0;entryY=0.75;entryDx=0;entryDy=0;exitPerimeter=0;" parent="1" source="229" target="273" edge="1">
                    <mxGeometry relative="1" as="geometry"/>
                </mxCell>
                <mxCell id="280" style="edgeStyle=none;html=1;entryX=0;entryY=0.75;entryDx=0;entryDy=0;exitX=0.39;exitY=0.011;exitDx=0;exitDy=0;exitPerimeter=0;" parent="1" source="229" target="272" edge="1">
                    <mxGeometry relative="1" as="geometry">
                        <mxPoint x="-4927" y="1530" as="sourcePoint"/>
                    </mxGeometry>
                </mxCell>
                <mxCell id="281" style="edgeStyle=none;html=1;exitX=0.651;exitY=0.018;exitDx=0;exitDy=0;exitPerimeter=0;entryX=0;entryY=0.25;entryDx=0;entryDy=0;" parent="1" source="229" target="271" edge="1">
                    <mxGeometry relative="1" as="geometry">
                        <mxPoint x="-3857" y="1600" as="targetPoint"/>
                    </mxGeometry>
                </mxCell>
                <mxCell id="282" style="edgeStyle=none;html=1;exitX=0.772;exitY=0.068;exitDx=0;exitDy=0;entryX=0;entryY=0.25;entryDx=0;entryDy=0;exitPerimeter=0;" parent="1" source="229" target="270" edge="1">
                    <mxGeometry relative="1" as="geometry"/>
                </mxCell>
                <mxCell id="283" style="edgeStyle=none;html=1;exitX=0.915;exitY=0.199;exitDx=0;exitDy=0;exitPerimeter=0;entryX=0;entryY=0.25;entryDx=0;entryDy=0;" parent="1" source="229" target="269" edge="1">
                    <mxGeometry relative="1" as="geometry">
                        <mxPoint x="-3857" y="2000" as="targetPoint"/>
                    </mxGeometry>
                </mxCell>
                <mxCell id="284" style="edgeStyle=none;html=1;exitX=0.98;exitY=0.357;exitDx=0;exitDy=0;exitPerimeter=0;entryX=0;entryY=0.25;entryDx=0;entryDy=0;" parent="1" source="229" target="211" edge="1">
                    <mxGeometry relative="1" as="geometry">
                        <mxPoint x="-3857" y="2200" as="targetPoint"/>
                    </mxGeometry>
                </mxCell>
                <mxCell id="546" style="edgeStyle=none;html=1;exitX=0;exitY=0.5;exitDx=0;exitDy=0;entryX=0;entryY=0.5;entryDx=0;entryDy=0;fontSize=19;startArrow=none;startFill=0;endArrow=classic;endFill=1;" parent="1" source="229" target="544" edge="1">
                    <mxGeometry relative="1" as="geometry"/>
                </mxCell>
                <mxCell id="229" value="1" style="ellipse;shape=doubleEllipse;whiteSpace=wrap;html=1;aspect=fixed;direction=south;" parent="1" vertex="1">
                    <mxGeometry x="-5007" y="1500" width="77.5" height="77.5" as="geometry"/>
                </mxCell>
                <mxCell id="331" style="edgeStyle=none;html=1;fontSize=16;entryX=0;entryY=0.5;entryDx=0;entryDy=0;" parent="1" source="232" target="226" edge="1">
                    <mxGeometry relative="1" as="geometry">
                        <mxPoint x="-3467" y="2520" as="targetPoint"/>
                    </mxGeometry>
                </mxCell>
                <mxCell id="232" value="" style="ellipse;shape=doubleEllipse;whiteSpace=wrap;html=1;aspect=fixed;" parent="1" vertex="1">
                    <mxGeometry x="-3767" y="2460" width="97.5" height="97.5" as="geometry"/>
                </mxCell>
                <mxCell id="234" value="p=13" style="text;html=1;align=center;verticalAlign=middle;resizable=0;points=[];autosize=1;strokeColor=none;fillColor=none;fontSize=12;" parent="1" vertex="1">
                    <mxGeometry x="-3445.5" y="2587" width="37" height="18" as="geometry"/>
                </mxCell>
                <mxCell id="245" style="edgeStyle=none;html=1;exitX=1;exitY=0.5;exitDx=0;exitDy=0;fontSize=25;" parent="1" source="240" edge="1">
                    <mxGeometry relative="1" as="geometry">
                        <mxPoint x="-2477.285714285714" y="2767.285714285714" as="targetPoint"/>
                    </mxGeometry>
                </mxCell>
                <mxCell id="240" value="" style="shape=ext;double=1;rounded=0;whiteSpace=wrap;html=1;rotation=90;" parent="1" vertex="1">
                    <mxGeometry x="-2487" y="2547" width="20" height="140" as="geometry"/>
                </mxCell>
                <mxCell id="250" style="edgeStyle=none;html=1;exitX=1;exitY=0.5;exitDx=0;exitDy=0;fontSize=25;" parent="1" source="241" edge="1">
                    <mxGeometry relative="1" as="geometry">
                        <mxPoint x="-2287.2" y="2766" as="targetPoint"/>
                    </mxGeometry>
                </mxCell>
                <mxCell id="414" value="vrácení zkoušecí tašky" style="edgeStyle=none;html=1;exitX=1;exitY=0.75;exitDx=0;exitDy=0;entryX=1;entryY=0.5;entryDx=0;entryDy=0;fontSize=16;" parent="1" source="241" target="173" edge="1">
                    <mxGeometry relative="1" as="geometry">
                        <Array as="points">
                            <mxPoint x="-2322" y="2750"/>
                            <mxPoint x="-2977" y="2750"/>
                            <mxPoint x="-2977" y="2889"/>
                        </Array>
                    </mxGeometry>
                </mxCell>
                <mxCell id="241" value="" style="shape=ext;double=1;rounded=0;whiteSpace=wrap;html=1;rotation=90;" parent="1" vertex="1">
                    <mxGeometry x="-2297" y="2547" width="20" height="140" as="geometry"/>
                </mxCell>
                <mxCell id="253" style="edgeStyle=none;html=1;exitX=1;exitY=0.5;exitDx=0;exitDy=0;fontSize=25;entryX=0.5;entryY=0;entryDx=0;entryDy=0;" parent="1" source="242" target="254" edge="1">
                    <mxGeometry relative="1" as="geometry">
                        <mxPoint x="-2088.2307692307695" y="2746.230769230769" as="targetPoint"/>
                    </mxGeometry>
                </mxCell>
                <mxCell id="242" value="" style="shape=ext;double=1;rounded=0;whiteSpace=wrap;html=1;rotation=90;" parent="1" vertex="1">
                    <mxGeometry x="-2098.25" y="2545" width="20" height="140" as="geometry"/>
                </mxCell>
                <mxCell id="342" style="edgeStyle=none;html=1;exitX=0.5;exitY=1;exitDx=0;exitDy=0;fontSize=16;entryX=0;entryY=0.5;entryDx=0;entryDy=0;" parent="1" source="247" target="339" edge="1">
                    <mxGeometry relative="1" as="geometry">
                        <mxPoint x="-2477.461538461539" y="2990.0000000000005" as="targetPoint"/>
                    </mxGeometry>
                </mxCell>
                <mxCell id="247" value="" style="ellipse;shape=doubleEllipse;whiteSpace=wrap;html=1;aspect=fixed;" parent="1" vertex="1">
                    <mxGeometry x="-2510.75" y="2767" width="67.5" height="67.5" as="geometry"/>
                </mxCell>
                <mxCell id="251" value="" style="ellipse;shape=doubleEllipse;whiteSpace=wrap;html=1;aspect=fixed;" parent="1" vertex="1">
                    <mxGeometry x="-2318.25" y="2767" width="67.5" height="67.5" as="geometry"/>
                </mxCell>
                <mxCell id="393" style="edgeStyle=none;html=1;exitX=0.5;exitY=1;exitDx=0;exitDy=0;entryX=0;entryY=0.5;entryDx=0;entryDy=0;fontSize=16;" parent="1" source="254" target="392" edge="1">
                    <mxGeometry relative="1" as="geometry"/>
                </mxCell>
                <mxCell id="254" value="" style="ellipse;shape=doubleEllipse;whiteSpace=wrap;html=1;aspect=fixed;" parent="1" vertex="1">
                    <mxGeometry x="-2122" y="2765" width="67.5" height="67.5" as="geometry"/>
                </mxCell>
                <mxCell id="255" value="Vejde!" style="text;html=1;align=center;verticalAlign=middle;resizable=0;points=[];autosize=1;strokeColor=none;fillColor=none;fontSize=25;" parent="1" vertex="1">
                    <mxGeometry x="-2609.5" y="2790" width="80" height="34" as="geometry"/>
                </mxCell>
                <mxCell id="256" value="Nevejde :(" style="text;html=1;align=center;verticalAlign=middle;resizable=0;points=[];autosize=1;strokeColor=none;fillColor=none;fontSize=25;" parent="1" vertex="1">
                    <mxGeometry x="-2427" y="2781.75" width="124" height="34" as="geometry"/>
                </mxCell>
                <mxCell id="257" value="Uložení těsné" style="text;html=1;align=center;verticalAlign=middle;resizable=0;points=[];autosize=1;strokeColor=none;fillColor=none;fontSize=25;" parent="1" vertex="1">
                    <mxGeometry x="-2263" y="2781.75" width="163" height="34" as="geometry"/>
                </mxCell>
                <mxCell id="369" style="edgeStyle=none;html=1;exitX=0.5;exitY=1;exitDx=0;exitDy=0;fontSize=16;entryX=0;entryY=0.5;entryDx=0;entryDy=0;" parent="1" source="258" target="370" edge="1">
                    <mxGeometry relative="1" as="geometry">
                        <mxPoint x="-2285" y="2980" as="targetPoint"/>
                    </mxGeometry>
                </mxCell>
                <mxCell id="258" value="" style="ellipse;shape=doubleEllipse;whiteSpace=wrap;html=1;aspect=fixed;" parent="1" vertex="1">
                    <mxGeometry x="-2318.25" y="2767" width="67.5" height="67.5" as="geometry"/>
                </mxCell>
                <mxCell id="291" style="edgeStyle=none;html=1;entryX=0;entryY=0.5;entryDx=0;entryDy=0;" parent="1" source="259" target="271" edge="1">
                    <mxGeometry relative="1" as="geometry"/>
                </mxCell>
                <mxCell id="259" value="n4" style="ellipse;shape=doubleEllipse;whiteSpace=wrap;html=1;aspect=fixed;" parent="1" vertex="1">
                    <mxGeometry x="-4025.75" y="1602" width="77.5" height="77.5" as="geometry"/>
                </mxCell>
                <mxCell id="260" value="n3" style="ellipse;shape=doubleEllipse;whiteSpace=wrap;html=1;aspect=fixed;" parent="1" vertex="1">
                    <mxGeometry x="-4025.75" y="1805.5" width="77.5" height="77.5" as="geometry"/>
                </mxCell>
                <mxCell id="294" style="edgeStyle=none;html=1;entryX=0;entryY=0.5;entryDx=0;entryDy=0;" parent="1" source="261" target="211" edge="1">
                    <mxGeometry relative="1" as="geometry"/>
                </mxCell>
                <mxCell id="261" value="n1" style="ellipse;shape=doubleEllipse;whiteSpace=wrap;html=1;aspect=fixed;" parent="1" vertex="1">
                    <mxGeometry x="-4025.75" y="2202" width="77.5" height="77.5" as="geometry"/>
                </mxCell>
                <mxCell id="293" style="edgeStyle=none;html=1;entryX=0;entryY=0.5;entryDx=0;entryDy=0;" parent="1" source="262" target="269" edge="1">
                    <mxGeometry relative="1" as="geometry"/>
                </mxCell>
                <mxCell id="262" value="n2" style="ellipse;shape=doubleEllipse;whiteSpace=wrap;html=1;aspect=fixed;" parent="1" vertex="1">
                    <mxGeometry x="-4025.75" y="1998.5" width="77.5" height="77.5" as="geometry"/>
                </mxCell>
                <mxCell id="292" style="edgeStyle=none;html=1;entryX=0;entryY=0.5;entryDx=0;entryDy=0;" parent="1" target="270" edge="1">
                    <mxGeometry relative="1" as="geometry">
                        <mxPoint x="-3948.2499999999945" y="1844.25" as="sourcePoint"/>
                    </mxGeometry>
                </mxCell>
                <mxCell id="286" style="edgeStyle=none;html=1;entryX=0;entryY=0.5;entryDx=0;entryDy=0;" parent="1" source="264" target="275" edge="1">
                    <mxGeometry relative="1" as="geometry"/>
                </mxCell>
                <mxCell id="264" value="n8" style="ellipse;shape=doubleEllipse;whiteSpace=wrap;html=1;aspect=fixed;" parent="1" vertex="1">
                    <mxGeometry x="-4025.75" y="800" width="77.5" height="77.5" as="geometry"/>
                </mxCell>
                <mxCell id="290" style="edgeStyle=none;html=1;entryX=0;entryY=0.5;entryDx=0;entryDy=0;" parent="1" source="265" target="272" edge="1">
                    <mxGeometry relative="1" as="geometry"/>
                </mxCell>
                <mxCell id="265" value="n5" style="ellipse;shape=doubleEllipse;whiteSpace=wrap;html=1;aspect=fixed;" parent="1" vertex="1">
                    <mxGeometry x="-4025.75" y="1400" width="77.5" height="77.5" as="geometry"/>
                </mxCell>
                <mxCell id="289" style="edgeStyle=none;html=1;entryX=0;entryY=0.5;entryDx=0;entryDy=0;" parent="1" source="266" target="273" edge="1">
                    <mxGeometry relative="1" as="geometry"/>
                </mxCell>
                <mxCell id="266" value="n6" style="ellipse;shape=doubleEllipse;whiteSpace=wrap;html=1;aspect=fixed;" parent="1" vertex="1">
                    <mxGeometry x="-4025.75" y="1196.5" width="77.5" height="77.5" as="geometry"/>
                </mxCell>
                <mxCell id="287" style="edgeStyle=none;html=1;entryX=0;entryY=0.5;entryDx=0;entryDy=0;" parent="1" source="267" target="274" edge="1">
                    <mxGeometry relative="1" as="geometry">
                        <mxPoint x="-3857" y="1042.25" as="targetPoint"/>
                    </mxGeometry>
                </mxCell>
                <mxCell id="267" value="n7" style="ellipse;shape=doubleEllipse;whiteSpace=wrap;html=1;aspect=fixed;" parent="1" vertex="1">
                    <mxGeometry x="-4025.75" y="1003.5" width="77.5" height="77.5" as="geometry"/>
                </mxCell>
                <mxCell id="302" value="n2" style="edgeStyle=none;html=1;exitX=1;exitY=0.25;exitDx=0;exitDy=0;entryX=0.272;entryY=0.956;entryDx=0;entryDy=0;entryPerimeter=0;" parent="1" source="269" target="285" edge="1">
                    <mxGeometry relative="1" as="geometry"/>
                </mxCell>
                <mxCell id="307" style="edgeStyle=none;html=1;exitX=1.036;exitY=0.777;exitDx=0;exitDy=0;fontSize=16;exitPerimeter=0;entryX=0.177;entryY=0.102;entryDx=0;entryDy=0;entryPerimeter=0;" parent="1" source="269" target="232" edge="1">
                    <mxGeometry relative="1" as="geometry">
                        <mxPoint x="-3787" y="2440" as="targetPoint"/>
                        <Array as="points">
                            <mxPoint x="-3750" y="2080"/>
                        </Array>
                    </mxGeometry>
                </mxCell>
                <mxCell id="269" value="" style="shape=ext;double=1;rounded=0;whiteSpace=wrap;html=1;" parent="1" vertex="1">
                    <mxGeometry x="-3849.5" y="1958.25" width="20" height="158" as="geometry"/>
                </mxCell>
                <mxCell id="301" value="n3" style="edgeStyle=none;html=1;exitX=1;exitY=0.25;exitDx=0;exitDy=0;entryX=0;entryY=1;entryDx=0;entryDy=0;" parent="1" source="270" target="285" edge="1">
                    <mxGeometry relative="1" as="geometry"/>
                </mxCell>
                <mxCell id="308" style="edgeStyle=none;html=1;exitX=1;exitY=0.75;exitDx=0;exitDy=0;entryX=0.309;entryY=0.024;entryDx=0;entryDy=0;entryPerimeter=0;fontSize=16;" parent="1" source="270" target="232" edge="1">
                    <mxGeometry relative="1" as="geometry">
                        <Array as="points">
                            <mxPoint x="-3737" y="1884"/>
                        </Array>
                    </mxGeometry>
                </mxCell>
                <mxCell id="270" value="" style="shape=ext;double=1;rounded=0;whiteSpace=wrap;html=1;" parent="1" vertex="1">
                    <mxGeometry x="-3849.5" y="1765.25" width="20" height="158" as="geometry"/>
                </mxCell>
                <mxCell id="300" value="n4" style="edgeStyle=none;html=1;exitX=1;exitY=0.25;exitDx=0;exitDy=0;" parent="1" source="271" edge="1">
                    <mxGeometry relative="1" as="geometry">
                        <mxPoint x="-3277" y="1560" as="targetPoint"/>
                    </mxGeometry>
                </mxCell>
                <mxCell id="309" style="edgeStyle=none;html=1;exitX=1;exitY=0.75;exitDx=0;exitDy=0;fontSize=16;entryX=0.448;entryY=-0.009;entryDx=0;entryDy=0;entryPerimeter=0;" parent="1" source="271" target="232" edge="1">
                    <mxGeometry relative="1" as="geometry">
                        <Array as="points">
                            <mxPoint x="-3727" y="1680"/>
                        </Array>
                    </mxGeometry>
                </mxCell>
                <mxCell id="271" value="" style="shape=ext;double=1;rounded=0;whiteSpace=wrap;html=1;" parent="1" vertex="1">
                    <mxGeometry x="-3849.5" y="1561.75" width="20" height="158" as="geometry"/>
                </mxCell>
                <mxCell id="299" value="n5" style="edgeStyle=none;html=1;exitX=1;exitY=0.75;exitDx=0;exitDy=0;entryX=-0.004;entryY=0.386;entryDx=0;entryDy=0;entryPerimeter=0;" parent="1" source="272" target="285" edge="1">
                    <mxGeometry relative="1" as="geometry"/>
                </mxCell>
                <mxCell id="312" style="edgeStyle=none;html=1;exitX=1;exitY=0.25;exitDx=0;exitDy=0;entryX=0.552;entryY=-0.01;entryDx=0;entryDy=0;fontSize=16;entryPerimeter=0;" parent="1" source="272" target="232" edge="1">
                    <mxGeometry relative="1" as="geometry">
                        <Array as="points">
                            <mxPoint x="-3718" y="1400"/>
                        </Array>
                    </mxGeometry>
                </mxCell>
                <mxCell id="272" value="" style="shape=ext;double=1;rounded=0;whiteSpace=wrap;html=1;" parent="1" vertex="1">
                    <mxGeometry x="-3849.5" y="1360" width="20" height="158" as="geometry"/>
                </mxCell>
                <mxCell id="298" value="n6" style="edgeStyle=none;html=1;exitX=1.012;exitY=0.81;exitDx=0;exitDy=0;entryX=0;entryY=0;entryDx=0;entryDy=0;exitPerimeter=0;" parent="1" source="273" target="285" edge="1">
                    <mxGeometry relative="1" as="geometry"/>
                </mxCell>
                <mxCell id="313" style="edgeStyle=none;html=1;exitX=1;exitY=0.25;exitDx=0;exitDy=0;fontSize=16;entryX=0.689;entryY=0.016;entryDx=0;entryDy=0;entryPerimeter=0;" parent="1" source="273" target="232" edge="1">
                    <mxGeometry relative="1" as="geometry">
                        <mxPoint x="-3667" y="2430" as="targetPoint"/>
                        <Array as="points">
                            <mxPoint x="-3707" y="1200"/>
                        </Array>
                    </mxGeometry>
                </mxCell>
                <mxCell id="273" value="" style="shape=ext;double=1;rounded=0;whiteSpace=wrap;html=1;" parent="1" vertex="1">
                    <mxGeometry x="-3849.5" y="1156.5" width="20" height="158" as="geometry"/>
                </mxCell>
                <mxCell id="297" value="n7" style="edgeStyle=none;html=1;exitX=1;exitY=0.75;exitDx=0;exitDy=0;entryX=0.309;entryY=0.028;entryDx=0;entryDy=0;entryPerimeter=0;" parent="1" source="274" target="285" edge="1">
                    <mxGeometry relative="1" as="geometry"/>
                </mxCell>
                <mxCell id="314" style="edgeStyle=none;html=1;exitX=1;exitY=0.25;exitDx=0;exitDy=0;entryX=0.796;entryY=0.078;entryDx=0;entryDy=0;fontSize=16;entryPerimeter=0;" parent="1" source="274" target="232" edge="1">
                    <mxGeometry relative="1" as="geometry">
                        <Array as="points">
                            <mxPoint x="-3697" y="1003"/>
                        </Array>
                    </mxGeometry>
                </mxCell>
                <mxCell id="274" value="" style="shape=ext;double=1;rounded=0;whiteSpace=wrap;html=1;" parent="1" vertex="1">
                    <mxGeometry x="-3849.5" y="963.5" width="20" height="158" as="geometry"/>
                </mxCell>
                <mxCell id="296" value="n8" style="edgeStyle=none;html=1;exitX=1;exitY=0.75;exitDx=0;exitDy=0;entryX=0.5;entryY=0;entryDx=0;entryDy=0;" parent="1" source="275" target="285" edge="1">
                    <mxGeometry relative="1" as="geometry"/>
                </mxCell>
                <mxCell id="315" style="edgeStyle=none;html=1;exitX=1;exitY=0.25;exitDx=0;exitDy=0;fontSize=16;entryX=0.932;entryY=0.247;entryDx=0;entryDy=0;entryPerimeter=0;" parent="1" source="275" target="232" edge="1">
                    <mxGeometry relative="1" as="geometry">
                        <mxPoint x="-3667" y="2470" as="targetPoint"/>
                        <Array as="points">
                            <mxPoint x="-3687" y="800"/>
                        </Array>
                    </mxGeometry>
                </mxCell>
                <mxCell id="275" value="" style="shape=ext;double=1;rounded=0;whiteSpace=wrap;html=1;" parent="1" vertex="1">
                    <mxGeometry x="-3849.5" y="760" width="20" height="158" as="geometry"/>
                </mxCell>
                <mxCell id="324" style="edgeStyle=none;html=1;exitX=1;exitY=0;exitDx=0;exitDy=0;entryX=0;entryY=0.75;entryDx=0;entryDy=0;fontSize=16;" parent="1" source="285" target="110" edge="1">
                    <mxGeometry relative="1" as="geometry"/>
                </mxCell>
                <mxCell id="325" value="2" style="edgeStyle=none;html=1;exitX=1;exitY=1;exitDx=0;exitDy=0;entryX=0;entryY=0.25;entryDx=0;entryDy=0;fontSize=16;" parent="1" source="285" target="111" edge="1">
                    <mxGeometry relative="1" as="geometry"/>
                </mxCell>
                <mxCell id="285" value="" style="ellipse;shape=doubleEllipse;whiteSpace=wrap;html=1;aspect=fixed;" parent="1" vertex="1">
                    <mxGeometry x="-3275.5" y="1480" width="122" height="122" as="geometry"/>
                </mxCell>
                <mxCell id="316" value="p=9" style="text;html=1;align=center;verticalAlign=middle;resizable=0;points=[];autosize=1;strokeColor=none;fillColor=none;" parent="1" vertex="1">
                    <mxGeometry x="-3859" y="2126.5" width="40" height="20" as="geometry"/>
                </mxCell>
                <mxCell id="317" value="p=8" style="text;html=1;align=center;verticalAlign=middle;resizable=0;points=[];autosize=1;strokeColor=none;fillColor=none;" parent="1" vertex="1">
                    <mxGeometry x="-3859" y="1922.25" width="40" height="20" as="geometry"/>
                </mxCell>
                <mxCell id="319" value="p=7" style="text;html=1;align=center;verticalAlign=middle;resizable=0;points=[];autosize=1;strokeColor=none;fillColor=none;" parent="1" vertex="1">
                    <mxGeometry x="-3861" y="1719.75" width="40" height="20" as="geometry"/>
                </mxCell>
                <mxCell id="320" value="p=6" style="text;html=1;align=center;verticalAlign=middle;resizable=0;points=[];autosize=1;strokeColor=none;fillColor=none;" parent="1" vertex="1">
                    <mxGeometry x="-3859.5" y="1518" width="40" height="20" as="geometry"/>
                </mxCell>
                <mxCell id="321" value="p=5" style="text;html=1;align=center;verticalAlign=middle;resizable=0;points=[];autosize=1;strokeColor=none;fillColor=none;" parent="1" vertex="1">
                    <mxGeometry x="-3861" y="1314.5" width="40" height="20" as="geometry"/>
                </mxCell>
                <mxCell id="322" value="p=4" style="text;html=1;align=center;verticalAlign=middle;resizable=0;points=[];autosize=1;strokeColor=none;fillColor=none;" parent="1" vertex="1">
                    <mxGeometry x="-3861" y="1121.5" width="40" height="20" as="geometry"/>
                </mxCell>
                <mxCell id="323" value="p=3" style="text;html=1;align=center;verticalAlign=middle;resizable=0;points=[];autosize=1;strokeColor=none;fillColor=none;" parent="1" vertex="1">
                    <mxGeometry x="-3861" y="918" width="40" height="20" as="geometry"/>
                </mxCell>
                <mxCell id="334" style="edgeStyle=none;html=1;exitX=0.5;exitY=0;exitDx=0;exitDy=0;entryX=1;entryY=0.5;entryDx=0;entryDy=0;" parent="1" source="335" target="337" edge="1">
                    <mxGeometry relative="1" as="geometry">
                        <mxPoint x="-1753.4558823529405" y="1975.3529411764707" as="targetPoint"/>
                    </mxGeometry>
                </mxCell>
                <mxCell id="362" style="edgeStyle=none;html=1;entryX=0;entryY=0.75;entryDx=0;entryDy=0;fontSize=16;" parent="1" target="356" edge="1">
                    <mxGeometry relative="1" as="geometry">
                        <mxPoint x="-1747" y="2090" as="sourcePoint"/>
                        <Array as="points">
                            <mxPoint x="-1777" y="2090"/>
                            <mxPoint x="-1777" y="2890"/>
                            <mxPoint x="-2798" y="2890"/>
                        </Array>
                    </mxGeometry>
                </mxCell>
                <mxCell id="374" style="edgeStyle=none;html=1;exitX=0;exitY=0;exitDx=0;exitDy=0;fontSize=16;entryX=1.042;entryY=0.619;entryDx=0;entryDy=0;entryPerimeter=0;" parent="1" source="335" target="375" edge="1">
                    <mxGeometry relative="1" as="geometry">
                        <mxPoint x="-2137" y="1640" as="targetPoint"/>
                        <Array as="points">
                            <mxPoint x="-1797" y="2069"/>
                            <mxPoint x="-1797" y="2010"/>
                            <mxPoint x="-2182" y="2010"/>
                        </Array>
                    </mxGeometry>
                </mxCell>
                <mxCell id="335" value="" style="ellipse;shape=doubleEllipse;whiteSpace=wrap;html=1;aspect=fixed;" parent="1" vertex="1">
                    <mxGeometry x="-1747" y="2059" width="67.5" height="67.5" as="geometry"/>
                </mxCell>
                <mxCell id="346" style="edgeStyle=none;html=1;exitX=0;exitY=0.5;exitDx=0;exitDy=0;entryX=1;entryY=1;entryDx=0;entryDy=0;fontSize=16;" parent="1" source="337" target="106" edge="1">
                    <mxGeometry relative="1" as="geometry">
                        <Array as="points">
                            <mxPoint x="-1713" y="1920"/>
                            <mxPoint x="-2472" y="1920"/>
                        </Array>
                    </mxGeometry>
                </mxCell>
                <mxCell id="419" style="edgeStyle=none;html=1;exitX=0;exitY=0.25;exitDx=0;exitDy=0;entryX=1;entryY=0.5;entryDx=0;entryDy=0;" parent="1" source="337" target="335" edge="1">
                    <mxGeometry relative="1" as="geometry">
                        <Array as="points">
                            <mxPoint x="-1679" y="1920"/>
                            <mxPoint x="-1567" y="1920"/>
                            <mxPoint x="-1567" y="2093"/>
                        </Array>
                    </mxGeometry>
                </mxCell>
                <mxCell id="337" value="" style="shape=ext;double=1;rounded=0;whiteSpace=wrap;html=1;rotation=90;" parent="1" vertex="1">
                    <mxGeometry x="-1723.25" y="1887.5" width="20" height="140" as="geometry"/>
                </mxCell>
                <mxCell id="338" value="p=2" style="text;html=1;align=center;verticalAlign=middle;resizable=0;points=[];autosize=1;strokeColor=none;fillColor=none;" parent="1" vertex="1">
                    <mxGeometry x="-1640.75" y="1947.5" width="40" height="20" as="geometry"/>
                </mxCell>
                <mxCell id="344" style="edgeStyle=none;html=1;exitX=1;exitY=0.5;exitDx=0;exitDy=0;fontSize=16;entryX=0;entryY=1;entryDx=0;entryDy=0;" parent="1" source="339" target="335" edge="1">
                    <mxGeometry relative="1" as="geometry">
                        <mxPoint x="-1717" y="2410" as="targetPoint"/>
                        <Array as="points">
                            <mxPoint x="-2477" y="3080"/>
                            <mxPoint x="-1747" y="3080"/>
                        </Array>
                    </mxGeometry>
                </mxCell>
                <mxCell id="347" style="edgeStyle=none;html=1;exitX=1;exitY=0.75;exitDx=0;exitDy=0;fontSize=16;entryX=1;entryY=0;entryDx=0;entryDy=0;" parent="1" source="339" target="349" edge="1">
                    <mxGeometry relative="1" as="geometry">
                        <mxPoint x="-2987" y="3100" as="targetPoint"/>
                        <Array as="points">
                            <mxPoint x="-2512" y="3080"/>
                        </Array>
                    </mxGeometry>
                </mxCell>
                <mxCell id="506" style="edgeStyle=none;html=1;exitX=1;exitY=0.25;exitDx=0;exitDy=0;fontSize=19;entryX=0.054;entryY=0.239;entryDx=0;entryDy=0;entryPerimeter=0;" parent="1" source="339" target="507" edge="1">
                    <mxGeometry relative="1" as="geometry">
                        <mxPoint x="-2097" y="2291" as="targetPoint"/>
                        <Array as="points">
                            <mxPoint x="-2442" y="3050"/>
                            <mxPoint x="-2377" y="3050"/>
                            <mxPoint x="-2377" y="2274"/>
                        </Array>
                    </mxGeometry>
                </mxCell>
                <mxCell id="339" value="" style="shape=ext;double=1;rounded=0;whiteSpace=wrap;html=1;rotation=90;" parent="1" vertex="1">
                    <mxGeometry x="-2487" y="2934" width="20" height="140" as="geometry"/>
                </mxCell>
                <mxCell id="352" style="edgeStyle=none;html=1;exitX=0;exitY=0.5;exitDx=0;exitDy=0;fontSize=16;entryX=0;entryY=0.25;entryDx=0;entryDy=0;" parent="1" source="349" target="350" edge="1">
                    <mxGeometry relative="1" as="geometry">
                        <mxPoint x="-3237" y="3120" as="targetPoint"/>
                    </mxGeometry>
                </mxCell>
                <mxCell id="372" style="edgeStyle=none;html=1;exitX=0.706;exitY=0.946;exitDx=0;exitDy=0;fontSize=16;exitPerimeter=0;entryX=1.068;entryY=0.827;entryDx=0;entryDy=0;entryPerimeter=0;" parent="1" source="349" target="375" edge="1">
                    <mxGeometry relative="1" as="geometry">
                        <mxPoint x="-2177" y="1640" as="targetPoint"/>
                        <Array as="points">
                            <mxPoint x="-1547" y="3134"/>
                            <mxPoint x="-1547" y="1900"/>
                            <mxPoint x="-2212" y="1900"/>
                        </Array>
                    </mxGeometry>
                </mxCell>
                <mxCell id="420" style="edgeStyle=none;html=1;exitX=0.5;exitY=0;exitDx=0;exitDy=0;entryX=0;entryY=0.25;entryDx=0;entryDy=0;" parent="1" source="349" target="356" edge="1">
                    <mxGeometry relative="1" as="geometry">
                        <Array as="points">
                            <mxPoint x="-3037" y="3000"/>
                            <mxPoint x="-2870" y="3000"/>
                        </Array>
                    </mxGeometry>
                </mxCell>
                <mxCell id="349" value="" style="ellipse;shape=doubleEllipse;whiteSpace=wrap;html=1;aspect=fixed;" parent="1" vertex="1">
                    <mxGeometry x="-3071.25" y="3070" width="67.5" height="67.5" as="geometry"/>
                </mxCell>
                <mxCell id="353" style="edgeStyle=none;html=1;exitX=1;exitY=0.25;exitDx=0;exitDy=0;fontSize=16;entryX=0.5;entryY=1;entryDx=0;entryDy=0;" parent="1" source="350" target="349" edge="1">
                    <mxGeometry relative="1" as="geometry">
                        <mxPoint x="-3297" y="3340.0000000000005" as="targetPoint"/>
                        <Array as="points">
                            <mxPoint x="-3307" y="3103"/>
                            <mxPoint x="-3307" y="3200"/>
                            <mxPoint x="-3037" y="3200"/>
                        </Array>
                    </mxGeometry>
                </mxCell>
                <mxCell id="354" style="edgeStyle=none;html=1;exitX=1;exitY=0.75;exitDx=0;exitDy=0;fontSize=16;entryX=0.561;entryY=0.997;entryDx=0;entryDy=0;entryPerimeter=0;" parent="1" source="350" target="285" edge="1">
                    <mxGeometry relative="1" as="geometry">
                        <mxPoint x="-3347" y="2390" as="targetPoint"/>
                        <Array as="points">
                            <mxPoint x="-3307" y="3033"/>
                            <mxPoint x="-3297" y="1780"/>
                        </Array>
                    </mxGeometry>
                </mxCell>
                <mxCell id="350" value="" style="shape=ext;double=1;rounded=0;whiteSpace=wrap;html=1;rotation=-180;" parent="1" vertex="1">
                    <mxGeometry x="-3246" y="2997.5" width="20" height="140" as="geometry"/>
                </mxCell>
                <mxCell id="355" value="Pracovník" style="text;html=1;align=center;verticalAlign=middle;resizable=0;points=[];autosize=1;strokeColor=none;fillColor=none;fontSize=16;" parent="1" vertex="1">
                    <mxGeometry x="-2858.25" y="1850" width="90" height="20" as="geometry"/>
                </mxCell>
                <mxCell id="364" style="edgeStyle=none;html=1;entryX=0.5;entryY=1;entryDx=0;entryDy=0;fontSize=16;exitX=1;exitY=0.75;exitDx=0;exitDy=0;" parent="1" source="356" target="126" edge="1">
                    <mxGeometry relative="1" as="geometry">
                        <mxPoint x="-2807" y="2780" as="sourcePoint"/>
                        <Array as="points">
                            <mxPoint x="-2798" y="2620"/>
                            <mxPoint x="-3077" y="2620"/>
                            <mxPoint x="-3077" y="1970"/>
                            <mxPoint x="-2817" y="1970"/>
                        </Array>
                    </mxGeometry>
                </mxCell>
                <mxCell id="536" style="edgeStyle=none;html=1;exitX=1;exitY=0.25;exitDx=0;exitDy=0;entryX=1;entryY=0.5;entryDx=0;entryDy=0;fontSize=19;startArrow=none;startFill=0;endArrow=classic;endFill=1;" parent="1" source="356" target="532" edge="1">
                    <mxGeometry relative="1" as="geometry">
                        <Array as="points">
                            <mxPoint x="-2870" y="2640"/>
                            <mxPoint x="-3607" y="2640"/>
                            <mxPoint x="-3607" y="2686"/>
                        </Array>
                    </mxGeometry>
                </mxCell>
                <mxCell id="356" value="" style="shape=ext;double=1;rounded=0;whiteSpace=wrap;html=1;rotation=-90;" parent="1" vertex="1">
                    <mxGeometry x="-2844.25" y="2730" width="20" height="144" as="geometry"/>
                </mxCell>
                <mxCell id="363" value="p=2" style="text;html=1;align=center;verticalAlign=middle;resizable=0;points=[];autosize=1;strokeColor=none;fillColor=none;fontSize=16;" parent="1" vertex="1">
                    <mxGeometry x="-3246" y="3200" width="40" height="20" as="geometry"/>
                </mxCell>
                <mxCell id="367" style="edgeStyle=none;html=1;exitX=0;exitY=0.25;exitDx=0;exitDy=0;entryX=1;entryY=0.5;entryDx=0;entryDy=0;fontSize=16;" parent="1" source="366" target="229" edge="1">
                    <mxGeometry relative="1" as="geometry"/>
                </mxCell>
                <mxCell id="368" style="edgeStyle=none;html=1;exitX=0;exitY=0.75;exitDx=0;exitDy=0;fontSize=16;entryX=0.276;entryY=0.961;entryDx=0;entryDy=0;entryPerimeter=0;" parent="1" source="366" target="126" edge="1">
                    <mxGeometry relative="1" as="geometry">
                        <Array as="points">
                            <mxPoint x="-3967" y="2785"/>
                            <mxPoint x="-3967" y="2860"/>
                            <mxPoint x="-3257" y="2860"/>
                            <mxPoint x="-3257" y="1940"/>
                        </Array>
                        <mxPoint x="-2897" y="1970" as="targetPoint"/>
                    </mxGeometry>
                </mxCell>
                <mxCell id="366" value="" style="shape=ext;double=1;rounded=0;whiteSpace=wrap;html=1;" parent="1" vertex="1">
                    <mxGeometry x="-3881" y="2680" width="20" height="140" as="geometry"/>
                </mxCell>
                <mxCell id="371" style="edgeStyle=none;html=1;exitX=1.01;exitY=0.841;exitDx=0;exitDy=0;entryX=1;entryY=0.5;entryDx=0;entryDy=0;fontSize=16;exitPerimeter=0;" parent="1" source="370" target="349" edge="1">
                    <mxGeometry relative="1" as="geometry">
                        <Array as="points">
                            <mxPoint x="-2332" y="3104"/>
                        </Array>
                    </mxGeometry>
                </mxCell>
                <mxCell id="373" style="edgeStyle=none;html=1;exitX=1.05;exitY=0.389;exitDx=0;exitDy=0;entryX=0.5;entryY=1;entryDx=0;entryDy=0;fontSize=16;exitPerimeter=0;" parent="1" source="370" target="335" edge="1">
                    <mxGeometry relative="1" as="geometry">
                        <Array as="points">
                            <mxPoint x="-2269" y="3100"/>
                            <mxPoint x="-1717" y="3100"/>
                        </Array>
                    </mxGeometry>
                </mxCell>
                <mxCell id="524" style="edgeStyle=none;html=1;exitX=1;exitY=0.25;exitDx=0;exitDy=0;fontSize=19;entryX=-0.001;entryY=0.612;entryDx=0;entryDy=0;entryPerimeter=0;" parent="1" source="370" target="507" edge="1">
                    <mxGeometry relative="1" as="geometry">
                        <mxPoint x="-2107" y="2309.9999999999995" as="targetPoint"/>
                        <Array as="points">
                            <mxPoint x="-2249" y="3050"/>
                            <mxPoint x="-2187" y="3050"/>
                            <mxPoint x="-2187" y="2299"/>
                        </Array>
                    </mxGeometry>
                </mxCell>
                <mxCell id="370" value="" style="shape=ext;double=1;rounded=0;whiteSpace=wrap;html=1;rotation=90;" parent="1" vertex="1">
                    <mxGeometry x="-2294.5" y="2930" width="20" height="140" as="geometry"/>
                </mxCell>
                <mxCell id="376" style="edgeStyle=none;html=1;fontSize=16;" parent="1" source="375" edge="1">
                    <mxGeometry relative="1" as="geometry">
                        <mxPoint x="-2165.75" y="1550" as="targetPoint"/>
                    </mxGeometry>
                </mxCell>
                <mxCell id="375" value="" style="shape=ext;double=1;rounded=0;whiteSpace=wrap;html=1;rotation=90;" parent="1" vertex="1">
                    <mxGeometry x="-2175.75" y="1561.75" width="20" height="140" as="geometry"/>
                </mxCell>
                <mxCell id="381" style="edgeStyle=none;html=1;exitX=0;exitY=0;exitDx=0;exitDy=0;entryX=1;entryY=0.25;entryDx=0;entryDy=0;fontSize=16;" parent="1" source="377" target="379" edge="1">
                    <mxGeometry relative="1" as="geometry">
                        <Array as="points">
                            <mxPoint x="-2237" y="1490"/>
                            <mxPoint x="-2237" y="1330"/>
                            <mxPoint x="-2489" y="1330"/>
                        </Array>
                    </mxGeometry>
                </mxCell>
                <mxCell id="385" style="edgeStyle=none;html=1;fontSize=16;entryX=1;entryY=0.5;entryDx=0;entryDy=0;" parent="1" source="377" target="386" edge="1">
                    <mxGeometry relative="1" as="geometry">
                        <mxPoint x="-1987" y="1520" as="targetPoint"/>
                    </mxGeometry>
                </mxCell>
                <mxCell id="377" value="" style="ellipse;shape=doubleEllipse;whiteSpace=wrap;html=1;aspect=fixed;" parent="1" vertex="1">
                    <mxGeometry x="-2199.5" y="1480.25" width="67.5" height="67.5" as="geometry"/>
                </mxCell>
                <mxCell id="378" value="může vyjet" style="text;html=1;align=center;verticalAlign=middle;resizable=0;points=[];autosize=1;strokeColor=none;fillColor=none;fontSize=16;" parent="1" vertex="1">
                    <mxGeometry x="-2377" y="1561.75" width="90" height="20" as="geometry"/>
                </mxCell>
                <mxCell id="416" style="edgeStyle=none;html=1;exitX=0;exitY=0.25;exitDx=0;exitDy=0;entryX=0.5;entryY=0;entryDx=0;entryDy=0;" parent="1" source="379" target="377" edge="1">
                    <mxGeometry relative="1" as="geometry">
                        <Array as="points">
                            <mxPoint x="-2489" y="1240"/>
                            <mxPoint x="-2166" y="1240"/>
                        </Array>
                    </mxGeometry>
                </mxCell>
                <mxCell id="418" style="edgeStyle=none;html=1;exitX=0;exitY=0.5;exitDx=0;exitDy=0;entryX=1;entryY=0.5;entryDx=0;entryDy=0;" parent="1" source="379" target="470" edge="1">
                    <mxGeometry relative="1" as="geometry">
                        <mxPoint x="613" y="1420" as="targetPoint"/>
                        <Array as="points">
                            <mxPoint x="-2550" y="190"/>
                            <mxPoint x="1960" y="180"/>
                            <mxPoint x="1923" y="1813"/>
                        </Array>
                    </mxGeometry>
                </mxCell>
                <mxCell id="379" value="" style="shape=ext;double=1;rounded=0;whiteSpace=wrap;html=1;rotation=90;" parent="1" vertex="1">
                    <mxGeometry x="-2533.87" y="1220" width="20" height="140" as="geometry"/>
                </mxCell>
                <mxCell id="387" style="edgeStyle=none;html=1;fontSize=16;" parent="1" source="386" edge="1">
                    <mxGeometry relative="1" as="geometry">
                        <mxPoint x="-1807" y="1514" as="targetPoint"/>
                    </mxGeometry>
                </mxCell>
                <mxCell id="386" value="" style="shape=ext;double=1;rounded=0;whiteSpace=wrap;html=1;rotation=-180;" parent="1" vertex="1">
                    <mxGeometry x="-1987" y="1444" width="20" height="140" as="geometry"/>
                </mxCell>
                <mxCell id="430" style="edgeStyle=none;html=1;entryX=0;entryY=0.5;entryDx=0;entryDy=0;fontSize=19;" parent="1" source="388" target="429" edge="1">
                    <mxGeometry relative="1" as="geometry"/>
                </mxCell>
                <mxCell id="388" value="" style="ellipse;shape=doubleEllipse;whiteSpace=wrap;html=1;aspect=fixed;" parent="1" vertex="1">
                    <mxGeometry x="-1807" y="1480.25" width="67.5" height="67.5" as="geometry"/>
                </mxCell>
                <mxCell id="389" value="auto vyjelo :)" style="text;html=1;align=center;verticalAlign=middle;resizable=0;points=[];autosize=1;strokeColor=none;fillColor=none;fontSize=16;" parent="1" vertex="1">
                    <mxGeometry x="-1828.25" y="1547.75" width="110" height="20" as="geometry"/>
                </mxCell>
                <mxCell id="391" value="p=1" style="text;html=1;align=center;verticalAlign=middle;resizable=0;points=[];autosize=1;strokeColor=none;fillColor=none;fontSize=16;" parent="1" vertex="1">
                    <mxGeometry x="-2647" y="1280" width="40" height="20" as="geometry"/>
                </mxCell>
                <mxCell id="406" style="edgeStyle=none;html=1;exitX=1;exitY=0.75;exitDx=0;exitDy=0;fontSize=16;entryX=0.956;entryY=0.75;entryDx=0;entryDy=0;entryPerimeter=0;" parent="1" source="392" target="349" edge="1">
                    <mxGeometry relative="1" as="geometry">
                        <mxPoint x="-2627" y="3180" as="targetPoint"/>
                        <Array as="points">
                            <mxPoint x="-2125" y="3120"/>
                        </Array>
                    </mxGeometry>
                </mxCell>
                <mxCell id="410" style="edgeStyle=none;html=1;exitX=1;exitY=0.5;exitDx=0;exitDy=0;fontSize=16;entryX=1;entryY=1;entryDx=0;entryDy=0;" parent="1" source="392" target="335" edge="1">
                    <mxGeometry relative="1" as="geometry">
                        <mxPoint x="-1867" y="2430" as="targetPoint"/>
                        <Array as="points">
                            <mxPoint x="-2090" y="3120"/>
                            <mxPoint x="-1689" y="3120"/>
                        </Array>
                    </mxGeometry>
                </mxCell>
                <mxCell id="525" style="edgeStyle=none;html=1;exitX=0.982;exitY=0.219;exitDx=0;exitDy=0;fontSize=19;entryX=0.712;entryY=0.975;entryDx=0;entryDy=0;entryPerimeter=0;exitPerimeter=0;" parent="1" source="392" target="507" edge="1">
                    <mxGeometry relative="1" as="geometry">
                        <mxPoint x="-2055" y="2330" as="targetPoint"/>
                        <Array as="points">
                            <mxPoint x="-2050" y="3050"/>
                            <mxPoint x="-1867" y="3050"/>
                            <mxPoint x="-1867" y="2380"/>
                            <mxPoint x="-2050" y="2380"/>
                        </Array>
                    </mxGeometry>
                </mxCell>
                <mxCell id="392" value="" style="shape=ext;double=1;rounded=0;whiteSpace=wrap;html=1;rotation=90;" parent="1" vertex="1">
                    <mxGeometry x="-2100" y="2930" width="20" height="140" as="geometry"/>
                </mxCell>
                <mxCell id="396" value="suck coutAuto" style="text;html=1;align=center;verticalAlign=middle;resizable=0;points=[];autosize=1;strokeColor=none;fillColor=none;fontSize=16;" parent="1" vertex="1">
                    <mxGeometry x="-1673.75" y="2127.5" width="120" height="20" as="geometry"/>
                </mxCell>
                <mxCell id="397" value="suck countBox" style="text;html=1;align=center;verticalAlign=middle;resizable=0;points=[];autosize=1;strokeColor=none;fillColor=none;fontSize=16;" parent="1" vertex="1">
                    <mxGeometry x="-3027" y="3040" width="120" height="20" as="geometry"/>
                </mxCell>
                <mxCell id="398" value="countBox" style="text;html=1;align=center;verticalAlign=middle;resizable=0;points=[];autosize=1;strokeColor=none;fillColor=none;fontSize=16;" parent="1" vertex="1">
                    <mxGeometry x="-3118.25" y="2910" width="80" height="20" as="geometry"/>
                </mxCell>
                <mxCell id="425" style="edgeStyle=none;html=1;fontSize=19;entryX=1.145;entryY=0.355;entryDx=0;entryDy=0;entryPerimeter=0;" parent="1" source="401" target="375" edge="1">
                    <mxGeometry relative="1" as="geometry">
                        <mxPoint x="-1887" y="2327.142857142857" as="targetPoint"/>
                        <Array as="points">
                            <mxPoint x="-1517" y="3210"/>
                            <mxPoint x="-1517" y="1870"/>
                            <mxPoint x="-2145" y="1870"/>
                        </Array>
                    </mxGeometry>
                </mxCell>
                <mxCell id="521" style="edgeStyle=none;html=1;entryX=1;entryY=0.612;entryDx=0;entryDy=0;entryPerimeter=0;fontSize=19;endArrow=none;endFill=0;startArrow=classic;startFill=1;" parent="1" source="401" target="370" edge="1">
                    <mxGeometry relative="1" as="geometry"/>
                </mxCell>
                <mxCell id="401" value="" style="ellipse;shape=doubleEllipse;whiteSpace=wrap;html=1;aspect=fixed;" parent="1" vertex="1">
                    <mxGeometry x="-2337" y="3170" width="73.75" height="73.75" as="geometry"/>
                </mxCell>
                <mxCell id="403" value="p=1" style="text;html=1;align=center;verticalAlign=middle;resizable=0;points=[];autosize=1;strokeColor=none;fillColor=none;fontSize=16;" parent="1" vertex="1">
                    <mxGeometry x="-2087" y="1621.75" width="40" height="20" as="geometry"/>
                </mxCell>
                <mxCell id="409" value="nevejde - odjezd" style="text;html=1;align=center;verticalAlign=middle;resizable=0;points=[];autosize=1;strokeColor=none;fillColor=none;fontSize=16;" parent="1" vertex="1">
                    <mxGeometry x="-2352" y="3250" width="130" height="20" as="geometry"/>
                </mxCell>
                <mxCell id="412" value="countCar" style="text;html=1;align=center;verticalAlign=middle;resizable=0;points=[];autosize=1;strokeColor=none;fillColor=none;fontSize=16;" parent="1" vertex="1">
                    <mxGeometry x="-2067" y="2141.75" width="80" height="20" as="geometry"/>
                </mxCell>
                <mxCell id="423" value="&lt;font style=&quot;font-size: 19px&quot;&gt;kontrola&lt;/font&gt;" style="text;html=1;align=center;verticalAlign=middle;resizable=0;points=[];autosize=1;strokeColor=none;fillColor=none;" parent="1" vertex="1">
                    <mxGeometry x="-2757" y="2370" width="80" height="20" as="geometry"/>
                </mxCell>
                <mxCell id="431" style="edgeStyle=none;html=1;exitX=1;exitY=0.5;exitDx=0;exitDy=0;fontSize=19;entryX=0;entryY=0.5;entryDx=0;entryDy=0;" parent="1" source="429" target="445" edge="1">
                    <mxGeometry relative="1" as="geometry">
                        <mxPoint x="-1127" y="3250.0000000000005" as="targetPoint"/>
                    </mxGeometry>
                </mxCell>
                <mxCell id="429" value="" style="shape=ext;double=1;rounded=0;whiteSpace=wrap;html=1;rotation=0;" parent="1" vertex="1">
                    <mxGeometry x="-1147" y="498" width="20" height="140" as="geometry"/>
                </mxCell>
                <mxCell id="468" style="edgeStyle=none;html=1;entryX=0;entryY=0.25;entryDx=0;entryDy=0;fontSize=19;" parent="1" source="432" target="438" edge="1">
                    <mxGeometry relative="1" as="geometry">
                        <Array as="points">
                            <mxPoint x="103" y="569"/>
                            <mxPoint x="103" y="510"/>
                            <mxPoint x="343" y="510"/>
                            <mxPoint x="343" y="534"/>
                        </Array>
                    </mxGeometry>
                </mxCell>
                <mxCell id="477" style="edgeStyle=none;html=1;exitX=0.5;exitY=1;exitDx=0;exitDy=0;entryX=-0.002;entryY=0.708;entryDx=0;entryDy=0;fontSize=19;entryPerimeter=0;" parent="1" source="432" target="474" edge="1">
                    <mxGeometry relative="1" as="geometry"/>
                </mxCell>
                <mxCell id="484" style="edgeStyle=none;html=1;exitX=0;exitY=1;exitDx=0;exitDy=0;fontSize=19;entryX=1;entryY=0.5;entryDx=0;entryDy=0;" parent="1" source="432" target="485" edge="1">
                    <mxGeometry relative="1" as="geometry">
                        <mxPoint x="-227" y="750" as="targetPoint"/>
                    </mxGeometry>
                </mxCell>
                <mxCell id="577" style="edgeStyle=none;html=1;exitX=1;exitY=0;exitDx=0;exitDy=0;entryX=0;entryY=0.25;entryDx=0;entryDy=0;fontSize=25;startArrow=none;startFill=0;endArrow=classic;endFill=1;" edge="1" parent="1" source="432" target="573">
                    <mxGeometry relative="1" as="geometry">
                        <Array as="points">
                            <mxPoint x="29" y="285"/>
                        </Array>
                    </mxGeometry>
                </mxCell>
                <mxCell id="432" value="" style="ellipse;shape=doubleEllipse;whiteSpace=wrap;html=1;aspect=fixed;" parent="1" vertex="1">
                    <mxGeometry x="-37" y="530" width="77.5" height="77.5" as="geometry"/>
                </mxCell>
                <mxCell id="435" value="exp(10m)" style="text;html=1;align=center;verticalAlign=middle;resizable=0;points=[];autosize=1;strokeColor=none;fillColor=none;fontSize=19;" parent="1" vertex="1">
                    <mxGeometry x="-1187" y="638" width="100" height="30" as="geometry"/>
                </mxCell>
                <mxCell id="441" style="edgeStyle=none;html=1;exitX=1;exitY=0.5;exitDx=0;exitDy=0;fontSize=19;entryX=0;entryY=0.5;entryDx=0;entryDy=0;" parent="1" source="438" target="453" edge="1">
                    <mxGeometry relative="1" as="geometry">
                        <mxPoint x="541.6547619047615" y="480" as="targetPoint"/>
                    </mxGeometry>
                </mxCell>
                <mxCell id="438" value="" style="shape=ext;double=1;rounded=0;whiteSpace=wrap;html=1;rotation=0;" parent="1" vertex="1">
                    <mxGeometry x="403" y="498.75" width="20" height="140" as="geometry"/>
                </mxCell>
                <mxCell id="448" style="edgeStyle=none;html=1;exitX=1;exitY=0.5;exitDx=0;exitDy=0;entryX=0;entryY=0.5;entryDx=0;entryDy=0;fontSize=19;" parent="1" source="445" target="447" edge="1">
                    <mxGeometry relative="1" as="geometry"/>
                </mxCell>
                <mxCell id="445" value="" style="ellipse;shape=doubleEllipse;whiteSpace=wrap;html=1;aspect=fixed;" parent="1" vertex="1">
                    <mxGeometry x="-480.75" y="530" width="77.5" height="77.5" as="geometry"/>
                </mxCell>
                <mxCell id="446" value="přijel k 1 boxu" style="text;html=1;align=center;verticalAlign=middle;resizable=0;points=[];autosize=1;strokeColor=none;fillColor=none;fontSize=19;" parent="1" vertex="1">
                    <mxGeometry x="-507" y="498" width="130" height="30" as="geometry"/>
                </mxCell>
                <mxCell id="467" style="edgeStyle=none;html=1;entryX=0;entryY=0.5;entryDx=0;entryDy=0;fontSize=19;" parent="1" source="447" target="432" edge="1">
                    <mxGeometry relative="1" as="geometry"/>
                </mxCell>
                <mxCell id="447" value="" style="shape=ext;double=1;rounded=0;whiteSpace=wrap;html=1;rotation=0;" parent="1" vertex="1">
                    <mxGeometry x="-277" y="498.75" width="20" height="140" as="geometry"/>
                </mxCell>
                <mxCell id="451" value="exp(1m30s) - režie" style="text;html=1;align=center;verticalAlign=middle;resizable=0;points=[];autosize=1;strokeColor=none;fillColor=none;fontSize=19;" parent="1" vertex="1">
                    <mxGeometry x="-352" y="650" width="170" height="30" as="geometry"/>
                </mxCell>
                <mxCell id="452" value="připraven nakládat / vykládat" style="text;html=1;align=center;verticalAlign=middle;resizable=0;points=[];autosize=1;strokeColor=none;fillColor=none;fontSize=19;" parent="1" vertex="1">
                    <mxGeometry x="-98.25" y="440" width="260" height="30" as="geometry"/>
                </mxCell>
                <mxCell id="455" style="edgeStyle=none;html=1;entryX=0;entryY=0.5;entryDx=0;entryDy=0;fontSize=19;" parent="1" source="453" target="454" edge="1">
                    <mxGeometry relative="1" as="geometry"/>
                </mxCell>
                <mxCell id="453" value="" style="ellipse;shape=doubleEllipse;whiteSpace=wrap;html=1;aspect=fixed;" parent="1" vertex="1">
                    <mxGeometry x="503" y="530" width="77.5" height="77.5" as="geometry"/>
                </mxCell>
                <mxCell id="469" style="edgeStyle=none;html=1;entryX=0.5;entryY=0;entryDx=0;entryDy=0;fontSize=19;" parent="1" source="454" target="432" edge="1">
                    <mxGeometry relative="1" as="geometry">
                        <Array as="points">
                            <mxPoint x="810" y="569"/>
                            <mxPoint x="810" y="210"/>
                            <mxPoint x="2" y="210"/>
                        </Array>
                    </mxGeometry>
                </mxCell>
                <mxCell id="454" value="" style="shape=ext;double=1;rounded=0;whiteSpace=wrap;html=1;rotation=0;" parent="1" vertex="1">
                    <mxGeometry x="663" y="498.75" width="20" height="140" as="geometry"/>
                </mxCell>
                <mxCell id="456" value="exp(25s)" style="text;html=1;align=center;verticalAlign=middle;resizable=0;points=[];autosize=1;strokeColor=none;fillColor=none;fontSize=19;" parent="1" vertex="1">
                    <mxGeometry x="628" y="650" width="90" height="30" as="geometry"/>
                </mxCell>
                <mxCell id="459" value="n4" style="ellipse;shape=doubleEllipse;whiteSpace=wrap;html=1;aspect=fixed;" parent="1" vertex="1">
                    <mxGeometry x="233" y="1924" width="77.5" height="77.5" as="geometry"/>
                </mxCell>
                <mxCell id="460" value="n3" style="ellipse;shape=doubleEllipse;whiteSpace=wrap;html=1;aspect=fixed;" parent="1" vertex="1">
                    <mxGeometry x="233" y="1686.5" width="77.5" height="77.5" as="geometry"/>
                </mxCell>
                <mxCell id="461" value="n2" style="ellipse;shape=doubleEllipse;whiteSpace=wrap;html=1;aspect=fixed;" parent="1" vertex="1">
                    <mxGeometry x="233" y="1402.75" width="77.5" height="77.5" as="geometry"/>
                </mxCell>
                <mxCell id="462" value="n5" style="ellipse;shape=doubleEllipse;whiteSpace=wrap;html=1;aspect=fixed;" parent="1" vertex="1">
                    <mxGeometry x="233" y="2161.5" width="77.5" height="77.5" as="geometry"/>
                </mxCell>
                <mxCell id="463" value="n8&lt;br&gt;" style="ellipse;shape=doubleEllipse;whiteSpace=wrap;html=1;aspect=fixed;" parent="1" vertex="1">
                    <mxGeometry x="233" y="2884" width="77.5" height="77.5" as="geometry"/>
                </mxCell>
                <mxCell id="464" value="n7" style="ellipse;shape=doubleEllipse;whiteSpace=wrap;html=1;aspect=fixed;" parent="1" vertex="1">
                    <mxGeometry x="233" y="2646.5" width="77.5" height="77.5" as="geometry"/>
                </mxCell>
                <mxCell id="465" value="n6" style="ellipse;shape=doubleEllipse;whiteSpace=wrap;html=1;aspect=fixed;" parent="1" vertex="1">
                    <mxGeometry x="233" y="2404" width="77.5" height="77.5" as="geometry"/>
                </mxCell>
                <mxCell id="473" style="edgeStyle=none;html=1;exitX=0.318;exitY=0.023;exitDx=0;exitDy=0;entryX=0;entryY=0.75;entryDx=0;entryDy=0;fontSize=19;exitPerimeter=0;" parent="1" source="470" target="573" edge="1">
                    <mxGeometry relative="1" as="geometry">
                        <Array as="points">
                            <mxPoint x="330" y="630"/>
                            <mxPoint x="330" y="355"/>
                        </Array>
                    </mxGeometry>
                </mxCell>
                <mxCell id="480" style="edgeStyle=none;html=1;exitX=0;exitY=0;exitDx=0;exitDy=0;entryX=0;entryY=0.25;entryDx=0;entryDy=0;fontSize=19;" parent="1" source="470" target="474" edge="1">
                    <mxGeometry relative="1" as="geometry">
                        <Array as="points">
                            <mxPoint x="243" y="610"/>
                            <mxPoint x="67" y="610"/>
                        </Array>
                    </mxGeometry>
                </mxCell>
                <mxCell id="582" style="edgeStyle=none;html=1;fontSize=25;startArrow=none;startFill=0;endArrow=classic;endFill=1;entryX=0;entryY=0.75;entryDx=0;entryDy=0;exitX=0.5;exitY=0;exitDx=0;exitDy=0;" edge="1" parent="1" source="470" target="438">
                    <mxGeometry relative="1" as="geometry">
                        <mxPoint x="350" y="620" as="targetPoint"/>
                        <Array as="points">
                            <mxPoint x="360" y="630"/>
                            <mxPoint x="360" y="604"/>
                        </Array>
                    </mxGeometry>
                </mxCell>
                <mxCell id="470" value="" style="ellipse;shape=doubleEllipse;whiteSpace=wrap;html=1;aspect=fixed;" parent="1" vertex="1">
                    <mxGeometry x="1583" y="1739.75" width="146.25" height="146.25" as="geometry"/>
                </mxCell>
                <mxCell id="471" value="Náklad vyjetého auta" style="text;html=1;align=center;verticalAlign=middle;resizable=0;points=[];autosize=1;strokeColor=none;fillColor=none;fontSize=19;" parent="1" vertex="1">
                    <mxGeometry x="1729.25" y="1845" width="190" height="30" as="geometry"/>
                </mxCell>
                <mxCell id="481" style="edgeStyle=none;html=1;entryX=0.056;entryY=0.237;entryDx=0;entryDy=0;entryPerimeter=0;fontSize=19;exitX=0.965;exitY=0.276;exitDx=0;exitDy=0;exitPerimeter=0;" parent="1" source="474" target="470" edge="1">
                    <mxGeometry relative="1" as="geometry">
                        <mxPoint x="63" y="680" as="sourcePoint"/>
                        <Array as="points">
                            <mxPoint x="63" y="710"/>
                            <mxPoint x="313" y="710"/>
                        </Array>
                    </mxGeometry>
                </mxCell>
                <mxCell id="483" style="edgeStyle=none;html=1;exitX=1;exitY=0.75;exitDx=0;exitDy=0;fontSize=19;" parent="1" source="474" edge="1">
                    <mxGeometry relative="1" as="geometry">
                        <mxPoint x="-3" y="950" as="targetPoint"/>
                    </mxGeometry>
                </mxCell>
                <mxCell id="474" value="" style="shape=ext;double=1;rounded=0;whiteSpace=wrap;html=1;rotation=90;" parent="1" vertex="1">
                    <mxGeometry x="21.75" y="596.5" width="20" height="140" as="geometry"/>
                </mxCell>
                <mxCell id="478" value="p=4" style="text;html=1;align=center;verticalAlign=middle;resizable=0;points=[];autosize=1;strokeColor=none;fillColor=none;fontSize=19;" parent="1" vertex="1">
                    <mxGeometry x="388" y="639.75" width="50" height="30" as="geometry"/>
                </mxCell>
                <mxCell id="479" value="p=2" style="text;html=1;align=center;verticalAlign=middle;resizable=0;points=[];autosize=1;strokeColor=none;fillColor=none;fontSize=19;" parent="1" vertex="1">
                    <mxGeometry x="-98.25" y="651.5" width="50" height="30" as="geometry"/>
                </mxCell>
                <mxCell id="488" style="edgeStyle=none;html=1;exitX=0;exitY=0.5;exitDx=0;exitDy=0;entryX=1;entryY=0.5;entryDx=0;entryDy=0;fontSize=19;" parent="1" source="485" target="487" edge="1">
                    <mxGeometry relative="1" as="geometry"/>
                </mxCell>
                <mxCell id="485" value="" style="shape=ext;double=1;rounded=0;whiteSpace=wrap;html=1;rotation=0;" parent="1" vertex="1">
                    <mxGeometry x="-277" y="710" width="20" height="140" as="geometry"/>
                </mxCell>
                <mxCell id="539" style="edgeStyle=none;html=1;exitX=0;exitY=1;exitDx=0;exitDy=0;fontSize=19;startArrow=none;startFill=0;endArrow=classic;endFill=1;" parent="1" source="487" edge="1">
                    <mxGeometry relative="1" as="geometry">
                        <mxPoint x="-3027" y="530" as="targetPoint"/>
                    </mxGeometry>
                </mxCell>
                <mxCell id="487" value="" style="ellipse;shape=doubleEllipse;whiteSpace=wrap;html=1;aspect=fixed;" parent="1" vertex="1">
                    <mxGeometry x="-480.75" y="741.25" width="77.5" height="77.5" as="geometry"/>
                </mxCell>
                <mxCell id="489" value="není náklad - odjíždí zpět" style="text;html=1;align=center;verticalAlign=middle;resizable=0;points=[];autosize=1;strokeColor=none;fillColor=none;fontSize=19;" parent="1" vertex="1">
                    <mxGeometry x="-557" y="706.5" width="230" height="30" as="geometry"/>
                </mxCell>
                <mxCell id="509" style="edgeStyle=none;html=1;entryX=0.935;entryY=0.756;entryDx=0;entryDy=0;fontSize=19;entryPerimeter=0;" parent="1" source="502" target="507" edge="1">
                    <mxGeometry relative="1" as="geometry">
                        <Array as="points">
                            <mxPoint x="-1867" y="2256"/>
                            <mxPoint x="-1867" y="2350"/>
                            <mxPoint x="-1977" y="2350"/>
                            <mxPoint x="-1977" y="2309"/>
                        </Array>
                    </mxGeometry>
                </mxCell>
                <mxCell id="502" value="" style="shape=ext;double=1;rounded=0;whiteSpace=wrap;html=1;rotation=0;" parent="1" vertex="1">
                    <mxGeometry x="-1947" y="2185.5" width="20" height="140" as="geometry"/>
                </mxCell>
                <mxCell id="508" style="edgeStyle=none;html=1;entryX=0;entryY=0.75;entryDx=0;entryDy=0;fontSize=19;" parent="1" source="507" target="502" edge="1">
                    <mxGeometry relative="1" as="geometry"/>
                </mxCell>
                <mxCell id="512" style="edgeStyle=none;html=1;exitX=0;exitY=1;exitDx=0;exitDy=0;entryX=0;entryY=0.5;entryDx=0;entryDy=0;fontSize=19;" parent="1" source="507" target="511" edge="1">
                    <mxGeometry relative="1" as="geometry">
                        <Array as="points">
                            <mxPoint x="-2088" y="2410"/>
                            <mxPoint x="-2027" y="2410"/>
                        </Array>
                    </mxGeometry>
                </mxCell>
                <mxCell id="507" value="" style="ellipse;shape=doubleEllipse;whiteSpace=wrap;html=1;aspect=fixed;" parent="1" vertex="1">
                    <mxGeometry x="-2098.25" y="2258" width="67.5" height="67.5" as="geometry"/>
                </mxCell>
                <mxCell id="513" style="edgeStyle=none;html=1;entryX=0;entryY=0.5;entryDx=0;entryDy=0;fontSize=19;" parent="1" source="511" target="130" edge="1">
                    <mxGeometry relative="1" as="geometry">
                        <Array as="points">
                            <mxPoint x="-2027" y="2510"/>
                            <mxPoint x="-2767" y="2510"/>
                            <mxPoint x="-2767" y="2226"/>
                        </Array>
                    </mxGeometry>
                </mxCell>
                <mxCell id="514" value="90" style="edgeLabel;html=1;align=center;verticalAlign=middle;resizable=0;points=[];fontSize=19;" parent="513" vertex="1" connectable="0">
                    <mxGeometry x="0.6616" y="-1" relative="1" as="geometry">
                        <mxPoint as="offset"/>
                    </mxGeometry>
                </mxCell>
                <mxCell id="516" style="edgeStyle=none;html=1;entryX=0;entryY=0.5;entryDx=0;entryDy=0;fontSize=19;exitX=0.5;exitY=1;exitDx=0;exitDy=0;" parent="1" source="517" target="356" edge="1">
                    <mxGeometry relative="1" as="geometry">
                        <mxPoint x="-1997" y="2610" as="sourcePoint"/>
                        <Array as="points">
                            <mxPoint x="-1917" y="2940"/>
                            <mxPoint x="-2834" y="2940"/>
                        </Array>
                    </mxGeometry>
                </mxCell>
                <mxCell id="518" style="edgeStyle=none;html=1;exitX=1;exitY=0.25;exitDx=0;exitDy=0;entryX=0.5;entryY=0;entryDx=0;entryDy=0;fontSize=19;" parent="1" source="511" target="517" edge="1">
                    <mxGeometry relative="1" as="geometry">
                        <Array as="points">
                            <mxPoint x="-1992" y="2510"/>
                            <mxPoint x="-1913" y="2510"/>
                        </Array>
                    </mxGeometry>
                </mxCell>
                <mxCell id="511" value="" style="shape=ext;double=1;rounded=0;whiteSpace=wrap;html=1;rotation=90;" parent="1" vertex="1">
                    <mxGeometry x="-2037" y="2380" width="20" height="140" as="geometry"/>
                </mxCell>
                <mxCell id="515" value="reset 90" style="text;html=1;align=center;verticalAlign=middle;resizable=0;points=[];autosize=1;strokeColor=none;fillColor=none;fontSize=19;" parent="1" vertex="1">
                    <mxGeometry x="-2104.5" y="2225.75" width="80" height="30" as="geometry"/>
                </mxCell>
                <mxCell id="519" style="edgeStyle=none;html=1;exitX=1;exitY=0.5;exitDx=0;exitDy=0;fontSize=19;entryX=1.098;entryY=0.169;entryDx=0;entryDy=0;entryPerimeter=0;" parent="1" source="517" target="375" edge="1">
                    <mxGeometry relative="1" as="geometry">
                        <mxPoint x="-2117" y="1650" as="targetPoint"/>
                        <Array as="points">
                            <mxPoint x="-1837" y="2571"/>
                            <mxPoint x="-1837" y="1830"/>
                            <mxPoint x="-2119" y="1830"/>
                        </Array>
                    </mxGeometry>
                </mxCell>
                <mxCell id="517" value="" style="ellipse;shape=doubleEllipse;whiteSpace=wrap;html=1;aspect=fixed;" parent="1" vertex="1">
                    <mxGeometry x="-1947" y="2537.5" width="67.5" height="67.5" as="geometry"/>
                </mxCell>
                <mxCell id="520" value="90 resetováno" style="text;html=1;align=center;verticalAlign=middle;resizable=0;points=[];autosize=1;strokeColor=none;fillColor=none;fontSize=19;" parent="1" vertex="1">
                    <mxGeometry x="-2054.5" y="2515" width="140" height="30" as="geometry"/>
                </mxCell>
                <mxCell id="530" value="p=3" style="text;html=1;align=center;verticalAlign=middle;resizable=0;points=[];autosize=1;strokeColor=none;fillColor=none;fontSize=19;" parent="1" vertex="1">
                    <mxGeometry x="-2597" y="2616.5" width="50" height="30" as="geometry"/>
                </mxCell>
                <mxCell id="531" value="p=2" style="text;html=1;align=center;verticalAlign=middle;resizable=0;points=[];autosize=1;strokeColor=none;fillColor=none;fontSize=19;" parent="1" vertex="1">
                    <mxGeometry x="-2377" y="2625" width="50" height="30" as="geometry"/>
                </mxCell>
                <mxCell id="537" style="edgeStyle=none;html=1;entryX=1;entryY=0.25;entryDx=0;entryDy=0;fontSize=19;startArrow=none;startFill=0;endArrow=classic;endFill=1;" parent="1" source="532" target="366" edge="1">
                    <mxGeometry relative="1" as="geometry"/>
                </mxCell>
                <mxCell id="532" value="" style="ellipse;shape=doubleEllipse;whiteSpace=wrap;html=1;aspect=fixed;" parent="1" vertex="1">
                    <mxGeometry x="-3725.75" y="2652.5" width="67.5" height="67.5" as="geometry"/>
                </mxCell>
                <mxCell id="534" value="může počítat dál" style="text;html=1;align=center;verticalAlign=middle;resizable=0;points=[];autosize=1;strokeColor=none;fillColor=none;fontSize=19;" parent="1" vertex="1">
                    <mxGeometry x="-3767" y="2622.5" width="150" height="30" as="geometry"/>
                </mxCell>
                <mxCell id="542" style="edgeStyle=none;html=1;exitX=0;exitY=0.25;exitDx=0;exitDy=0;fontSize=19;startArrow=none;startFill=0;endArrow=classic;endFill=1;" parent="1" source="540" edge="1">
                    <mxGeometry relative="1" as="geometry">
                        <Array as="points">
                            <mxPoint x="-3657" y="610"/>
                            <mxPoint x="-3647" y="2590"/>
                        </Array>
                        <mxPoint x="-3677" y="2650" as="targetPoint"/>
                    </mxGeometry>
                </mxCell>
                <mxCell id="570" style="edgeStyle=none;html=1;exitX=0;exitY=0.75;exitDx=0;exitDy=0;entryX=0;entryY=0;entryDx=0;entryDy=0;fontSize=28;" parent="1" source="540" target="126" edge="1">
                    <mxGeometry relative="1" as="geometry">
                        <Array as="points">
                            <mxPoint x="-3507" y="840"/>
                        </Array>
                    </mxGeometry>
                </mxCell>
                <mxCell id="540" value="" style="shape=ext;double=1;rounded=0;whiteSpace=wrap;html=1;rotation=0;" parent="1" vertex="1">
                    <mxGeometry x="-3047.5" y="470" width="20" height="140" as="geometry"/>
                </mxCell>
                <mxCell id="541" value="exp(10m)" style="text;html=1;align=center;verticalAlign=middle;resizable=0;points=[];autosize=1;strokeColor=none;fillColor=none;fontSize=19;" parent="1" vertex="1">
                    <mxGeometry x="-3072" y="620" width="100" height="30" as="geometry"/>
                </mxCell>
                <mxCell id="547" style="edgeStyle=none;html=1;fontSize=19;startArrow=none;startFill=0;endArrow=classic;endFill=1;" parent="1" source="544" edge="1">
                    <mxGeometry relative="1" as="geometry">
                        <mxPoint x="-3597" y="440" as="targetPoint"/>
                    </mxGeometry>
                </mxCell>
                <mxCell id="544" value="" style="shape=ext;double=1;rounded=0;whiteSpace=wrap;html=1;" parent="1" vertex="1">
                    <mxGeometry x="-3849" y="360" width="20" height="158" as="geometry"/>
                </mxCell>
                <mxCell id="545" value="konec" style="text;html=1;align=center;verticalAlign=middle;resizable=0;points=[];autosize=1;strokeColor=none;fillColor=none;fontSize=19;" parent="1" vertex="1">
                    <mxGeometry x="-3874" y="540" width="70" height="30" as="geometry"/>
                </mxCell>
                <mxCell id="550" style="edgeStyle=none;html=1;exitX=1;exitY=0.5;exitDx=0;exitDy=0;fontSize=19;startArrow=none;startFill=0;endArrow=classic;endFill=1;" parent="1" source="548" edge="1">
                    <mxGeometry relative="1" as="geometry">
                        <mxPoint x="-3407" y="440" as="targetPoint"/>
                    </mxGeometry>
                </mxCell>
                <mxCell id="548" value="" style="ellipse;shape=doubleEllipse;whiteSpace=wrap;html=1;aspect=fixed;" parent="1" vertex="1">
                    <mxGeometry x="-3597" y="405.25" width="67.5" height="67.5" as="geometry"/>
                </mxCell>
                <mxCell id="549" value="vše naloženo/odvozeno" style="text;html=1;align=center;verticalAlign=middle;resizable=0;points=[];autosize=1;strokeColor=none;fillColor=none;fontSize=19;" parent="1" vertex="1">
                    <mxGeometry x="-3673.25" y="375.25" width="220" height="30" as="geometry"/>
                </mxCell>
                <mxCell id="556" style="edgeStyle=none;html=1;fontSize=19;startArrow=none;startFill=0;endArrow=classic;endFill=1;exitX=0.5;exitY=0;exitDx=0;exitDy=0;" parent="1" source="548" edge="1">
                    <mxGeometry relative="1" as="geometry">
                        <mxPoint x="-2127" y="840" as="targetPoint"/>
                        <Array as="points">
                            <mxPoint x="-3377" y="40"/>
                            <mxPoint x="-2237" y="510"/>
                            <mxPoint x="-2227" y="790"/>
                        </Array>
                    </mxGeometry>
                </mxCell>
                <mxCell id="563" style="edgeStyle=none;html=1;exitX=1;exitY=0.25;exitDx=0;exitDy=0;fontSize=19;startArrow=none;startFill=0;endArrow=classic;endFill=1;" parent="1" source="552" edge="1">
                    <mxGeometry relative="1" as="geometry">
                        <mxPoint x="-2647" y="94" as="targetPoint"/>
                    </mxGeometry>
                </mxCell>
                <mxCell id="552" value="" style="shape=ext;double=1;rounded=0;whiteSpace=wrap;html=1;" parent="1" vertex="1">
                    <mxGeometry x="-3408.5" y="360" width="20" height="158" as="geometry"/>
                </mxCell>
                <mxCell id="560" style="edgeStyle=none;html=1;exitX=1;exitY=0.75;exitDx=0;exitDy=0;entryX=1;entryY=0.5;entryDx=0;entryDy=0;fontSize=19;startArrow=none;startFill=0;endArrow=classic;endFill=1;" parent="1" source="558" target="106" edge="1">
                    <mxGeometry relative="1" as="geometry">
                        <Array as="points">
                            <mxPoint x="-2097" y="990"/>
                        </Array>
                    </mxGeometry>
                </mxCell>
                <mxCell id="561" style="edgeStyle=none;html=1;exitX=1;exitY=0.25;exitDx=0;exitDy=0;entryX=1;entryY=0;entryDx=0;entryDy=0;fontSize=19;startArrow=none;startFill=0;endArrow=classic;endFill=1;" parent="1" source="558" target="377" edge="1">
                    <mxGeometry relative="1" as="geometry">
                        <Array as="points">
                            <mxPoint x="-1957" y="1130"/>
                        </Array>
                    </mxGeometry>
                </mxCell>
                <mxCell id="558" value="" style="shape=ext;double=1;rounded=0;whiteSpace=wrap;html=1;rotation=40;" parent="1" vertex="1">
                    <mxGeometry x="-2152" y="810" width="20" height="140" as="geometry"/>
                </mxCell>
                <mxCell id="562" value="p=1" style="text;html=1;align=center;verticalAlign=middle;resizable=0;points=[];autosize=1;strokeColor=none;fillColor=none;fontSize=19;" parent="1" vertex="1">
                    <mxGeometry x="-3432" y="325" width="50" height="30" as="geometry"/>
                </mxCell>
                <mxCell id="564" value="&lt;font style=&quot;font-size: 60px&quot;&gt;END&lt;/font&gt;" style="text;html=1;align=center;verticalAlign=middle;resizable=0;points=[];autosize=1;strokeColor=none;fillColor=none;fontSize=19;" parent="1" vertex="1">
                    <mxGeometry x="-2587" y="53" width="140" height="40" as="geometry"/>
                </mxCell>
                <mxCell id="568" value="&lt;font style=&quot;font-size: 28px&quot;&gt;p=9999&lt;br&gt;&lt;/font&gt;" style="text;html=1;align=center;verticalAlign=middle;resizable=0;points=[];autosize=1;strokeColor=none;fillColor=none;" parent="1" vertex="1">
                    <mxGeometry x="-2139.5" y="798.75" width="110" height="20" as="geometry"/>
                </mxCell>
                <mxCell id="571" value="&lt;font style=&quot;font-size: 25px&quot;&gt;p=10&lt;/font&gt;" style="text;html=1;align=center;verticalAlign=middle;resizable=0;points=[];autosize=1;strokeColor=none;fillColor=none;" vertex="1" parent="1">
                    <mxGeometry x="-1967" y="2157" width="66" height="23" as="geometry"/>
                </mxCell>
                <mxCell id="579" style="edgeStyle=none;html=1;entryX=0;entryY=0.5;entryDx=0;entryDy=0;fontSize=25;startArrow=none;startFill=0;endArrow=classic;endFill=1;" edge="1" parent="1" source="573" target="574">
                    <mxGeometry relative="1" as="geometry"/>
                </mxCell>
                <mxCell id="573" value="" style="shape=ext;double=1;rounded=0;whiteSpace=wrap;html=1;rotation=0;" vertex="1" parent="1">
                    <mxGeometry x="403" y="250" width="20" height="140" as="geometry"/>
                </mxCell>
                <mxCell id="580" style="edgeStyle=none;html=1;entryX=0;entryY=0.5;entryDx=0;entryDy=0;fontSize=25;startArrow=none;startFill=0;endArrow=classic;endFill=1;" edge="1" parent="1" source="574" target="578">
                    <mxGeometry relative="1" as="geometry"/>
                </mxCell>
                <mxCell id="574" value="" style="ellipse;shape=doubleEllipse;whiteSpace=wrap;html=1;aspect=fixed;" vertex="1" parent="1">
                    <mxGeometry x="503" y="277.5" width="77.5" height="77.5" as="geometry"/>
                </mxCell>
                <mxCell id="575" value="p=3" style="text;html=1;align=center;verticalAlign=middle;resizable=0;points=[];autosize=1;strokeColor=none;fillColor=none;fontSize=25;" vertex="1" parent="1">
                    <mxGeometry x="390" y="390" width="60" height="40" as="geometry"/>
                </mxCell>
                <mxCell id="584" style="edgeStyle=none;html=1;entryX=0;entryY=0;entryDx=0;entryDy=0;fontSize=25;startArrow=none;startFill=0;endArrow=classic;endFill=1;" edge="1" parent="1" source="578" target="432">
                    <mxGeometry relative="1" as="geometry">
                        <Array as="points">
                            <mxPoint x="750" y="316"/>
                            <mxPoint x="750" y="230"/>
                            <mxPoint x="-26" y="230"/>
                        </Array>
                    </mxGeometry>
                </mxCell>
                <mxCell id="578" value="" style="shape=ext;double=1;rounded=0;whiteSpace=wrap;html=1;rotation=0;" vertex="1" parent="1">
                    <mxGeometry x="663" y="246.25" width="20" height="140" as="geometry"/>
                </mxCell>
                <mxCell id="581" value="exp(25s)" style="text;html=1;align=center;verticalAlign=middle;resizable=0;points=[];autosize=1;strokeColor=none;fillColor=none;fontSize=19;" vertex="1" parent="1">
                    <mxGeometry x="628" y="405.25" width="90" height="30" as="geometry"/>
                </mxCell>
            </root>
        </mxGraphModel>
    </diagram>
</mxfile>